G04 Layer_Color=65535*
%FSAX44Y44*%
%MOMM*%
G71*
G01*
G75*
%ADD17C,0.2540*%
%ADD18C,0.5000*%
%ADD34C,0.3000*%
%ADD35C,0.2500*%
%ADD36C,0.6000*%
%ADD37C,0.2000*%
D17*
X01149750Y00378250D02*
X01149750Y00378250D01*
X01139500Y00378250D02*
X01149750D01*
X01033000Y00378250D02*
X01033000Y00378250D01*
X01044500D01*
X01033000Y00370250D02*
Y00378250D01*
Y00303250D02*
X01150000D01*
X01033000D02*
Y00370250D01*
Y00328250D02*
Y00366750D01*
X01033125Y00366875D02*
X01044500Y00378250D01*
X01149750Y00378250D02*
X01150000Y00378000D01*
Y00303250D02*
Y00378000D01*
X01139500Y00378250D02*
X01150020Y00367730D01*
X01033500Y00328250D02*
X01149000D01*
X01477750Y01267270D02*
X01593250D01*
X01476730Y01227790D02*
X01487250Y01217270D01*
X01476750Y01217520D02*
Y01292270D01*
Y01217520D02*
X01477000Y01217270D01*
X01582250Y01217270D02*
X01593625Y01228645D01*
X01593750Y01228770D02*
Y01267270D01*
Y01225270D02*
Y01292270D01*
X01476750D02*
X01593750D01*
Y01217270D02*
Y01225270D01*
X01582250Y01217270D02*
X01593750D01*
X01593750Y01217270D01*
X01477000Y01217270D02*
X01487250D01*
X01477000Y01217270D02*
X01477000Y01217270D01*
X01312250Y00378250D02*
X01312250Y00378250D01*
X01302000Y00378250D02*
X01312250D01*
X01195500Y00378250D02*
X01195500Y00378250D01*
X01207000D01*
X01195500Y00370250D02*
Y00378250D01*
Y00303250D02*
X01312500D01*
X01195500D02*
Y00370250D01*
Y00328250D02*
Y00366750D01*
X01195625Y00366875D02*
X01207000Y00378250D01*
X01312250Y00378250D02*
X01312500Y00378000D01*
Y00303250D02*
Y00378000D01*
X01302000Y00378250D02*
X01312520Y00367730D01*
X01196000Y00328250D02*
X01311500D01*
X01358500D02*
X01474000D01*
X01464500Y00378250D02*
X01475020Y00367730D01*
X01475000Y00303250D02*
Y00378000D01*
X01474750Y00378250D02*
X01475000Y00378000D01*
X01358125Y00366875D02*
X01369500Y00378250D01*
X01358000Y00328250D02*
Y00366750D01*
Y00303250D02*
Y00370250D01*
Y00303250D02*
X01475000D01*
X01358000Y00370250D02*
Y00378250D01*
X01358000Y00378250D02*
X01369500D01*
X01358000Y00378250D02*
X01358000Y00378250D01*
X01464500D02*
X01474750D01*
X01474750Y00378250D01*
X01637250Y00378250D02*
X01637250Y00378250D01*
X01627000Y00378250D02*
X01637250D01*
X01520500Y00378250D02*
X01520500Y00378250D01*
X01532000D01*
X01520500Y00370250D02*
Y00378250D01*
Y00303250D02*
X01637500D01*
X01520500D02*
Y00370250D01*
Y00328250D02*
Y00366750D01*
X01520625Y00366875D02*
X01532000Y00378250D01*
X01637250Y00378250D02*
X01637500Y00378000D01*
Y00303250D02*
Y00378000D01*
X01627000Y00378250D02*
X01637520Y00367730D01*
X01521000Y00328250D02*
X01636500D01*
X00284500Y00427750D02*
Y00543250D01*
X00323980Y00426730D02*
X00334500Y00437250D01*
X00259500Y00426750D02*
X00334250D01*
X00334500Y00427000D01*
X00323125Y00543625D02*
X00334500Y00532250D01*
X00284500Y00543750D02*
X00323000D01*
X00259500D02*
X00326500D01*
X00259500Y00426750D02*
Y00543750D01*
X00326500D02*
X00334500D01*
X00334500Y00532250D02*
Y00543750D01*
X00334500Y00543750D02*
X00334500Y00543750D01*
Y00427000D02*
Y00437250D01*
X00334500Y00427000D02*
X00334500Y00427000D01*
X00656000Y00365750D02*
X00656000Y00365750D01*
X00645750Y00365750D02*
X00656000D01*
X00539250Y00365750D02*
X00539250Y00365750D01*
X00550750D01*
X00539250Y00357750D02*
Y00365750D01*
Y00290750D02*
X00656250D01*
X00539250D02*
Y00357750D01*
Y00315750D02*
Y00354250D01*
X00539375Y00354375D02*
X00550750Y00365750D01*
X00656000Y00365750D02*
X00656250Y00365500D01*
Y00290750D02*
Y00365500D01*
X00645750Y00365750D02*
X00656270Y00355230D01*
X00539750Y00315750D02*
X00655250D01*
X00702250D02*
X00817750D01*
X00808250Y00365750D02*
X00818770Y00355230D01*
X00818750Y00290750D02*
Y00365500D01*
X00818500Y00365750D02*
X00818750Y00365500D01*
X00701875Y00354375D02*
X00713250Y00365750D01*
X00701750Y00315750D02*
Y00354250D01*
Y00290750D02*
Y00357750D01*
Y00290750D02*
X00818750D01*
X00701750Y00357750D02*
Y00365750D01*
X00701750Y00365750D02*
X00713250D01*
X00701750Y00365750D02*
X00701750Y00365750D01*
X00808250D02*
X00818500D01*
X00818500Y00365750D01*
X00334500Y00589500D02*
X00334500Y00589500D01*
Y00599750D01*
X00334500Y00706250D02*
X00334500Y00706250D01*
Y00694750D02*
Y00706250D01*
X00326500Y00706250D02*
X00334500D01*
X00259500Y00589250D02*
Y00706250D01*
X00326500D01*
X00284500D02*
X00323000D01*
X00323125Y00706125D02*
X00334500Y00694750D01*
X00334250Y00589250D02*
X00334500Y00589500D01*
X00259500Y00589250D02*
X00334250D01*
X00323980Y00589230D02*
X00334500Y00599750D01*
X00284500Y00590250D02*
Y00705750D01*
Y00752750D02*
Y00868250D01*
X00323980Y00751730D02*
X00334500Y00762250D01*
X00259500Y00751750D02*
X00334250D01*
X00334500Y00752000D01*
X00323125Y00868625D02*
X00334500Y00857250D01*
X00284500Y00868750D02*
X00323000D01*
X00259500D02*
X00326500D01*
X00259500Y00751750D02*
Y00868750D01*
X00326500D02*
X00334500D01*
X00334500Y00857250D02*
Y00868750D01*
X00334500Y00868750D02*
X00334500Y00868750D01*
Y00752000D02*
Y00762250D01*
X00334500Y00752000D02*
X00334500Y00752000D01*
X00334500Y00914500D02*
X00334500Y00914500D01*
Y00924750D01*
X00334500Y01031250D02*
X00334500Y01031250D01*
Y01019750D02*
Y01031250D01*
X00326500Y01031250D02*
X00334500D01*
X00259500Y00914250D02*
Y01031250D01*
X00326500D01*
X00284500D02*
X00323000D01*
X00323125Y01031125D02*
X00334500Y01019750D01*
X00334250Y00914250D02*
X00334500Y00914500D01*
X00259500Y00914250D02*
X00334250D01*
X00323980Y00914230D02*
X00334500Y00924750D01*
X00284500Y00915250D02*
Y01030750D01*
X01683250Y01168750D02*
X01683250Y01168750D01*
X01683250Y01157733D02*
Y01168750D01*
Y01101750D02*
Y01112983D01*
X01725250Y01168750D02*
X01733250D01*
X01758250Y01101750D02*
Y01168750D01*
X01683250Y01101750D02*
X01758250D01*
X01683250Y01168750D02*
X01758250D01*
X01694500Y01101733D02*
X01733250D01*
X01683250Y01112983D02*
X01694500Y01101733D01*
X01683250Y01157733D02*
X01694250Y01168733D01*
X01733250Y01101733D02*
Y01168733D01*
X01694250D02*
X01733250D01*
X01694250Y01056233D02*
X01733250D01*
Y00989233D02*
Y01056233D01*
X01683250Y01045233D02*
X01694250Y01056233D01*
X01683250Y01000483D02*
X01694500Y00989233D01*
X01733250D01*
X01683250Y01056250D02*
X01758250D01*
X01683250Y00989250D02*
X01758250D01*
Y01056250D01*
X01725250Y01056250D02*
X01733250D01*
X01683250Y00989250D02*
Y01000483D01*
Y01045233D02*
Y01056250D01*
X01683250Y01056250D01*
X01683250Y00943750D02*
X01683250Y00943750D01*
X01683250Y00932733D02*
Y00943750D01*
Y00876750D02*
Y00887983D01*
X01725250Y00943750D02*
X01733250D01*
X01758250Y00876750D02*
Y00943750D01*
X01683250Y00876750D02*
X01758250D01*
X01683250Y00943750D02*
X01758250D01*
X01694500Y00876733D02*
X01733250D01*
X01683250Y00887983D02*
X01694500Y00876733D01*
X01683250Y00932733D02*
X01694250Y00943733D01*
X01733250Y00876733D02*
Y00943733D01*
X01694250D02*
X01733250D01*
X01694250Y00831233D02*
X01733250D01*
Y00764233D02*
Y00831233D01*
X01683250Y00820233D02*
X01694250Y00831233D01*
X01683250Y00775483D02*
X01694500Y00764233D01*
X01733250D01*
X01683250Y00831250D02*
X01758250D01*
X01683250Y00764250D02*
X01758250D01*
Y00831250D01*
X01725250Y00831250D02*
X01733250D01*
X01683250Y00764250D02*
Y00775483D01*
Y00820233D02*
Y00831250D01*
X01683250Y00831250D01*
X01683250Y00718750D02*
X01683250Y00718750D01*
X01683250Y00707733D02*
Y00718750D01*
Y00651750D02*
Y00662983D01*
X01725250Y00718750D02*
X01733250D01*
X01758250Y00651750D02*
Y00718750D01*
X01683250Y00651750D02*
X01758250D01*
X01683250Y00718750D02*
X01758250D01*
X01694500Y00651733D02*
X01733250D01*
X01683250Y00662983D02*
X01694500Y00651733D01*
X01683250Y00707733D02*
X01694250Y00718733D01*
X01733250Y00651733D02*
Y00718733D01*
X01694250D02*
X01733250D01*
X01694250Y00606233D02*
X01733250D01*
Y00539233D02*
Y00606233D01*
X01683250Y00595233D02*
X01694250Y00606233D01*
X01683250Y00550483D02*
X01694500Y00539233D01*
X01733250D01*
X01683250Y00606250D02*
X01758250D01*
X01683250Y00539250D02*
X01758250D01*
Y00606250D01*
X01725250Y00606250D02*
X01733250D01*
X01683250Y00539250D02*
Y00550483D01*
Y00595233D02*
Y00606250D01*
X01683250Y00606250D01*
X01201750Y01214500D02*
X01201875Y01214375D01*
X01212750D01*
X01201750Y01214500D02*
Y01293500D01*
X01293750Y01214500D02*
Y01222500D01*
X01201750Y01293500D02*
X01293750D01*
Y01222500D02*
Y01293500D01*
X01282750Y01214375D02*
X01293750Y01225375D01*
Y01229375D01*
X01201750Y01239375D02*
Y01264375D01*
X01293750D01*
Y01229375D02*
Y01264375D01*
X01201937Y01225188D02*
X01212750Y01214375D01*
X01201750Y01225375D02*
Y01239375D01*
X01282750Y01214375D02*
X01293625D01*
X01293750Y01214500D01*
X00881125Y01214375D02*
X00881250Y01214500D01*
X00870250Y01214375D02*
X00881125D01*
X00789250Y01225375D02*
Y01239375D01*
X00789437Y01225188D02*
X00800250Y01214375D01*
X00881250Y01229375D02*
Y01264375D01*
X00789250D02*
X00881250D01*
X00789250Y01239375D02*
Y01264375D01*
X00881250Y01225375D02*
Y01229375D01*
X00870250Y01214375D02*
X00881250Y01225375D01*
X00881250Y01222500D02*
Y01293500D01*
X00789250D02*
X00881250D01*
Y01214500D02*
Y01222500D01*
X00789250Y01214500D02*
Y01293500D01*
X00789375Y01214375D02*
X00800250D01*
X00789250Y01214500D02*
X00789375Y01214375D01*
X00376750Y01214500D02*
X00376875Y01214375D01*
X00387750D01*
X00376750Y01214500D02*
Y01293500D01*
X00468750Y01214500D02*
Y01222500D01*
X00376750Y01293500D02*
X00468750D01*
Y01222500D02*
Y01293500D01*
X00457750Y01214375D02*
X00468750Y01225375D01*
Y01229375D01*
X00376750Y01239375D02*
Y01264375D01*
X00468750D01*
Y01229375D02*
Y01264375D01*
X00376937Y01225188D02*
X00387750Y01214375D01*
X00376750Y01225375D02*
Y01239375D01*
X00457750Y01214375D02*
X00468625D01*
X00468750Y01214500D01*
X01431125Y01214375D02*
X01431250Y01214500D01*
X01420250Y01214375D02*
X01431125D01*
X01339250Y01225375D02*
Y01239375D01*
X01339438Y01225188D02*
X01350250Y01214375D01*
X01431250Y01229375D02*
Y01264375D01*
X01339250D02*
X01431250D01*
X01339250Y01239375D02*
Y01264375D01*
X01431250Y01225375D02*
Y01229375D01*
X01420250Y01214375D02*
X01431250Y01225375D01*
X01431250Y01222500D02*
Y01293500D01*
X01339250D02*
X01431250D01*
Y01214500D02*
Y01222500D01*
X01339250Y01214500D02*
Y01293500D01*
X01339375Y01214375D02*
X01350250D01*
X01339250Y01214500D02*
X01339375Y01214375D01*
X00926750Y01214500D02*
X00926875Y01214375D01*
X00937750D01*
X00926750Y01214500D02*
Y01293500D01*
X01018750Y01214500D02*
Y01222500D01*
X00926750Y01293500D02*
X01018750D01*
Y01222500D02*
Y01293500D01*
X01007750Y01214375D02*
X01018750Y01225375D01*
Y01229375D01*
X00926750Y01239375D02*
Y01264375D01*
X01018750D01*
Y01229375D02*
Y01264375D01*
X00926937Y01225188D02*
X00937750Y01214375D01*
X00926750Y01225375D02*
Y01239375D01*
X01007750Y01214375D02*
X01018625D01*
X01018750Y01214500D01*
X00606125Y01214375D02*
X00606250Y01214500D01*
X00595250Y01214375D02*
X00606125D01*
X00514250Y01225375D02*
Y01239375D01*
X00514437Y01225188D02*
X00525250Y01214375D01*
X00606250Y01229375D02*
Y01264375D01*
X00514250D02*
X00606250D01*
X00514250Y01239375D02*
Y01264375D01*
X00606250Y01225375D02*
Y01229375D01*
X00595250Y01214375D02*
X00606250Y01225375D01*
X00606250Y01222500D02*
Y01293500D01*
X00514250D02*
X00606250D01*
Y01214500D02*
Y01222500D01*
X00514250Y01214500D02*
Y01293500D01*
X00514375Y01214375D02*
X00525250D01*
X00514250Y01214500D02*
X00514375Y01214375D01*
X01064250Y01214500D02*
X01064375Y01214375D01*
X01075250D01*
X01064250Y01214500D02*
Y01293500D01*
X01156250Y01214500D02*
Y01222500D01*
X01064250Y01293500D02*
X01156250D01*
Y01222500D02*
Y01293500D01*
X01145250Y01214375D02*
X01156250Y01225375D01*
Y01229375D01*
X01064250Y01239375D02*
Y01264375D01*
X01156250D01*
Y01229375D02*
Y01264375D01*
X01064437Y01225188D02*
X01075250Y01214375D01*
X01064250Y01225375D02*
Y01239375D01*
X01145250Y01214375D02*
X01156125D01*
X01156250Y01214500D01*
X00743625Y01214375D02*
X00743750Y01214500D01*
X00732750Y01214375D02*
X00743625D01*
X00651750Y01225375D02*
Y01239375D01*
X00651937Y01225188D02*
X00662750Y01214375D01*
X00743750Y01229375D02*
Y01264375D01*
X00651750D02*
X00743750D01*
X00651750Y01239375D02*
Y01264375D01*
X00743750Y01225375D02*
Y01229375D01*
X00732750Y01214375D02*
X00743750Y01225375D01*
X00743750Y01222500D02*
Y01293500D01*
X00651750D02*
X00743750D01*
Y01214500D02*
Y01222500D01*
X00651750Y01214500D02*
Y01293500D01*
X00651875Y01214375D02*
X00662750D01*
X00651750Y01214500D02*
X00651875Y01214375D01*
X01417250Y01091500D02*
X01420250D01*
X01431250Y01102500D01*
Y01106500D01*
X01350250Y01091500D02*
X01417250D01*
X01339250Y01116500D02*
Y01141500D01*
X01431250D01*
Y01106500D02*
Y01141500D01*
X01340250Y01101500D02*
X01350250Y01091500D01*
X01339250Y01102500D02*
Y01116500D01*
Y01102500D02*
X01340250Y01101500D01*
X01318000Y00789250D02*
X01319000Y00790250D01*
X01304000Y00789250D02*
X01318000D01*
X01319000Y00790250D02*
X01329000Y00800250D01*
X01279000Y00881250D02*
X01314000D01*
X01279000Y00789250D02*
Y00881250D01*
Y00789250D02*
X01304000D01*
X01329000Y00800250D02*
Y00867250D01*
X01314000Y00881250D02*
X01318000D01*
X01329000Y00870250D01*
Y00867250D02*
Y00870250D01*
Y00767250D02*
Y00770250D01*
X01318000Y00781250D02*
X01329000Y00770250D01*
X01314000Y00781250D02*
X01318000D01*
X01329000Y00700250D02*
Y00767250D01*
X01279000Y00689250D02*
X01304000D01*
X01279000D02*
Y00781250D01*
X01314000D01*
X01319000Y00690250D02*
X01329000Y00700250D01*
X01304000Y00689250D02*
X01318000D01*
X01319000Y00690250D01*
X01394563Y00789250D02*
X01395562Y00790250D01*
X01380562Y00789250D02*
X01394563D01*
X01395562Y00790250D02*
X01405562Y00800250D01*
X01355562Y00881250D02*
X01390562D01*
X01355562Y00789250D02*
Y00881250D01*
Y00789250D02*
X01380562D01*
X01405562Y00800250D02*
Y00867250D01*
X01390562Y00881250D02*
X01394563D01*
X01405562Y00870250D01*
Y00867250D02*
Y00870250D01*
Y00767250D02*
Y00770250D01*
X01394563Y00781250D02*
X01405562Y00770250D01*
X01390562Y00781250D02*
X01394563D01*
X01405562Y00700250D02*
Y00767250D01*
X01355562Y00689250D02*
X01380562D01*
X01355562D02*
Y00781250D01*
X01390562D01*
X01395562Y00690250D02*
X01405562Y00700250D01*
X01380562Y00689250D02*
X01394563D01*
X01395562Y00690250D01*
X01471125Y00789250D02*
X01472125Y00790250D01*
X01457125Y00789250D02*
X01471125D01*
X01472125Y00790250D02*
X01482125Y00800250D01*
X01432125Y00881250D02*
X01467125D01*
X01432125Y00789250D02*
Y00881250D01*
Y00789250D02*
X01457125D01*
X01482125Y00800250D02*
Y00867250D01*
X01467125Y00881250D02*
X01471125D01*
X01482125Y00870250D01*
Y00867250D02*
Y00870250D01*
Y00767250D02*
Y00770250D01*
X01471125Y00781250D02*
X01482125Y00770250D01*
X01467125Y00781250D02*
X01471125D01*
X01482125Y00700250D02*
Y00767250D01*
X01432125Y00689250D02*
X01457125D01*
X01432125D02*
Y00781250D01*
X01467125D01*
X01472125Y00690250D02*
X01482125Y00700250D01*
X01457125Y00689250D02*
X01471125D01*
X01472125Y00690250D01*
X01547688Y00789250D02*
X01548687Y00790250D01*
X01533687Y00789250D02*
X01547688D01*
X01548687Y00790250D02*
X01558687Y00800250D01*
X01508687Y00881250D02*
X01543687D01*
X01508687Y00789250D02*
Y00881250D01*
Y00789250D02*
X01533687D01*
X01558687Y00800250D02*
Y00867250D01*
X01543687Y00881250D02*
X01547688D01*
X01558687Y00870250D01*
Y00867250D02*
Y00870250D01*
Y00767250D02*
Y00770250D01*
X01547688Y00781250D02*
X01558687Y00770250D01*
X01543687Y00781250D02*
X01547688D01*
X01558687Y00700250D02*
Y00767250D01*
X01508687Y00689250D02*
X01533687D01*
X01508687D02*
Y00781250D01*
X01543687D01*
X01548687Y00690250D02*
X01558687Y00700250D01*
X01533687Y00689250D02*
X01547688D01*
X01548687Y00690250D01*
X01624250Y00789250D02*
X01625250Y00790250D01*
X01610250Y00789250D02*
X01624250D01*
X01625250Y00790250D02*
X01635250Y00800250D01*
X01585250Y00881250D02*
X01620250D01*
X01585250Y00789250D02*
Y00881250D01*
Y00789250D02*
X01610250D01*
X01635250Y00800250D02*
Y00867250D01*
X01620250Y00881250D02*
X01624250D01*
X01635250Y00870250D01*
Y00867250D02*
Y00870250D01*
Y00767250D02*
Y00770250D01*
X01624250Y00781250D02*
X01635250Y00770250D01*
X01620250Y00781250D02*
X01624250D01*
X01635250Y00700250D02*
Y00767250D01*
X01585250Y00689250D02*
X01610250D01*
X01585250D02*
Y00781250D01*
X01620250D01*
X01625250Y00690250D02*
X01635250Y00700250D01*
X01610250Y00689250D02*
X01624250D01*
X01625250Y00690250D01*
X01064250Y01102500D02*
X01065250Y01101500D01*
X01064250Y01102500D02*
Y01116500D01*
X01065250Y01101500D02*
X01075250Y01091500D01*
X01156250Y01106500D02*
Y01141500D01*
X01064250D02*
X01156250D01*
X01064250Y01116500D02*
Y01141500D01*
X01075250Y01091500D02*
X01142250D01*
X01156250Y01102500D02*
Y01106500D01*
X01145250Y01091500D02*
X01156250Y01102500D01*
X01142250Y01091500D02*
X01145250D01*
X01279750D02*
X01282750D01*
X01293750Y01102500D01*
Y01106500D01*
X01212750Y01091500D02*
X01279750D01*
X01201750Y01116500D02*
Y01141500D01*
X01293750D01*
Y01106500D02*
Y01141500D01*
X01202750Y01101500D02*
X01212750Y01091500D01*
X01201750Y01102500D02*
Y01116500D01*
Y01102500D02*
X01202750Y01101500D01*
X00441250Y00330250D02*
Y00965250D01*
X00455250D02*
X00466250D01*
X00427250D02*
X00455250D01*
X00427250Y00330250D02*
X00455250D01*
X00466250D01*
Y00338250D01*
X00441250Y00965250D02*
X00452750D01*
X00416250Y00330250D02*
X00427250D01*
X00416250Y00965250D02*
X00427250D01*
X00416250Y00956750D02*
Y00965250D01*
X00466250Y00956750D02*
Y00965250D01*
X00416250Y00330250D02*
Y00338250D01*
X00924250Y00330250D02*
Y00338250D01*
X00974250Y00956750D02*
Y00965250D01*
X00924250Y00956750D02*
Y00965250D01*
X00935250D01*
X00924250Y00330250D02*
X00935250D01*
X00949250Y00965250D02*
X00960750D01*
X00974250Y00330250D02*
Y00338250D01*
X00963250Y00330250D02*
X00974250D01*
X00935250D02*
X00963250D01*
X00935250Y00965250D02*
X00963250D01*
X00974250D01*
X00949250Y00330250D02*
Y00965250D01*
X01195500Y00572750D02*
Y00597750D01*
X01313000D01*
X01311500Y00557750D02*
Y00557750D01*
X01301500Y00547750D02*
X01311500Y00557750D01*
X01313000Y00559250D02*
Y00597750D01*
X01301500Y00547750D02*
X01311500Y00557750D01*
X01206500Y00547750D02*
X01301500D01*
X01196500Y00557750D02*
X01206500Y00547750D01*
X01195500Y00558750D02*
Y00572750D01*
Y00558750D02*
X01196500Y00557750D01*
X01311500Y00557750D02*
X01313000Y00559250D01*
X01033000Y00572750D02*
Y00597750D01*
X01150500D01*
X01149000Y00557750D02*
Y00557750D01*
X01139000Y00547750D02*
X01149000Y00557750D01*
X01150500Y00559250D02*
Y00597750D01*
X01139000Y00547750D02*
X01149000Y00557750D01*
X01044000Y00547750D02*
X01139000D01*
X01034000Y00557750D02*
X01044000Y00547750D01*
X01033000Y00558750D02*
Y00572750D01*
Y00558750D02*
X01034000Y00557750D01*
X01149000Y00557750D02*
X01150500Y00559250D01*
X01520500Y00466500D02*
Y00491500D01*
X01638000D01*
X01636500Y00451500D02*
Y00451500D01*
X01626500Y00441500D02*
X01636500Y00451500D01*
X01638000Y00453000D02*
Y00491500D01*
X01626500Y00441500D02*
X01636500Y00451500D01*
X01531500Y00441500D02*
X01626500D01*
X01521500Y00451500D02*
X01531500Y00441500D01*
X01520500Y00452500D02*
Y00466500D01*
Y00452500D02*
X01521500Y00451500D01*
X01636500Y00451500D02*
X01638000Y00453000D01*
X01358000Y00466500D02*
Y00491500D01*
X01475500D01*
X01474000Y00451500D02*
Y00451500D01*
X01464000Y00441500D02*
X01474000Y00451500D01*
X01475500Y00453000D02*
Y00491500D01*
X01464000Y00441500D02*
X01474000Y00451500D01*
X01369000Y00441500D02*
X01464000D01*
X01359000Y00451500D02*
X01369000Y00441500D01*
X01358000Y00452500D02*
Y00466500D01*
Y00452500D02*
X01359000Y00451500D01*
X01474000Y00451500D02*
X01475500Y00453000D01*
X01033000Y00466500D02*
Y00491500D01*
X01150500D01*
X01149000Y00451500D02*
Y00451500D01*
X01139000Y00441500D02*
X01149000Y00451500D01*
X01150500Y00453000D02*
Y00491500D01*
X01139000Y00441500D02*
X01149000Y00451500D01*
X01044000Y00441500D02*
X01139000D01*
X01034000Y00451500D02*
X01044000Y00441500D01*
X01033000Y00452500D02*
Y00466500D01*
Y00452500D02*
X01034000Y00451500D01*
X01149000Y00451500D02*
X01150500Y00453000D01*
X01195500Y00466500D02*
Y00491500D01*
X01313000D01*
X01311500Y00451500D02*
Y00451500D01*
X01301500Y00441500D02*
X01311500Y00451500D01*
X01313000Y00453000D02*
Y00491500D01*
X01301500Y00441500D02*
X01311500Y00451500D01*
X01206500Y00441500D02*
X01301500D01*
X01196500Y00451500D02*
X01206500Y00441500D01*
X01195500Y00452500D02*
Y00466500D01*
Y00452500D02*
X01196500Y00451500D01*
X01311500Y00451500D02*
X01313000Y00453000D01*
X01225000Y00985250D02*
Y01010250D01*
X01107500Y00985250D02*
X01225000D01*
X01109000Y01025250D02*
Y01025250D01*
X01119000Y01035250D01*
X01107500Y00985250D02*
Y01023750D01*
X01109000Y01025250D02*
X01119000Y01035250D01*
X01214000D01*
X01224000Y01025250D01*
X01225000Y01010250D02*
Y01024250D01*
X01224000Y01025250D02*
X01225000Y01024250D01*
X01107500Y01023750D02*
X01109000Y01025250D01*
X01350000Y00985250D02*
Y01010250D01*
X01232500Y00985250D02*
X01350000D01*
X01234000Y01025250D02*
Y01025250D01*
X01244000Y01035250D01*
X01232500Y00985250D02*
Y01023750D01*
X01234000Y01025250D02*
X01244000Y01035250D01*
X01339000D01*
X01349000Y01025250D01*
X01350000Y01010250D02*
Y01024250D01*
X01349000Y01025250D02*
X01350000Y01024250D01*
X01232500Y01023750D02*
X01234000Y01025250D01*
X00511918Y00830512D02*
X00507752Y00826347D01*
Y00818016D01*
X00511918Y00813850D01*
X00528579D01*
X00532744Y00818016D01*
Y00826347D01*
X00528579Y00830512D01*
X00516083Y00838842D02*
X00532744D01*
X00524414D01*
X00520248Y00843008D01*
X00516083Y00847173D01*
Y00851338D01*
X00532744Y00868000D02*
Y00876330D01*
X00528579Y00880496D01*
X00520248D01*
X00516083Y00876330D01*
Y00868000D01*
X00520248Y00863834D01*
X00528579D01*
X00532744Y00868000D01*
Y00888826D02*
Y00901322D01*
X00528579Y00905488D01*
X00524414Y00901322D01*
Y00892992D01*
X00520248Y00888826D01*
X00516083Y00892992D01*
Y00905488D01*
X00532744Y00913818D02*
Y00926314D01*
X00528579Y00930480D01*
X00524414Y00926314D01*
Y00917983D01*
X00520248Y00913818D01*
X00516083Y00917983D01*
Y00930480D01*
X00507752Y00963802D02*
X00532744D01*
Y00976298D01*
X00528579Y00980463D01*
X00524414D01*
X00520248D01*
X00516083Y00976298D01*
Y00963802D01*
X00532744Y00992959D02*
Y01001290D01*
X00528579Y01005455D01*
X00520248D01*
X00516083Y01001290D01*
Y00992959D01*
X00520248Y00988794D01*
X00528579D01*
X00532744Y00992959D01*
X00516083Y01017951D02*
Y01026282D01*
X00520248Y01030447D01*
X00532744D01*
Y01017951D01*
X00528579Y01013786D01*
X00524414Y01017951D01*
Y01030447D01*
X00516083Y01038778D02*
X00532744D01*
X00524414D01*
X00520248Y01042943D01*
X00516083Y01047108D01*
Y01051274D01*
X00507752Y01080431D02*
X00532744D01*
Y01067935D01*
X00528579Y01063770D01*
X00520248D01*
X00516083Y01067935D01*
Y01080431D01*
X00543672Y00820098D02*
X00560333D01*
X00568664Y00828429D01*
X00560333Y00836760D01*
X00543672D01*
X00568664Y00857586D02*
Y00849256D01*
X00564499Y00845090D01*
X00556168D01*
X00552003Y00849256D01*
Y00857586D01*
X00556168Y00861752D01*
X00560333D01*
Y00845090D01*
X00552003Y00870082D02*
X00568664D01*
X00560333D01*
X00556168Y00874248D01*
X00552003Y00878413D01*
Y00882578D01*
X00568664Y00895074D02*
Y00907570D01*
X00564499Y00911736D01*
X00560333Y00907570D01*
Y00899240D01*
X00556168Y00895074D01*
X00552003Y00899240D01*
Y00911736D01*
X00568664Y00920066D02*
Y00928397D01*
Y00924231D01*
X00552003D01*
Y00920066D01*
X00568664Y00945058D02*
Y00953389D01*
X00564499Y00957554D01*
X00556168D01*
X00552003Y00953389D01*
Y00945058D01*
X00556168Y00940893D01*
X00564499D01*
X00568664Y00945058D01*
Y00965885D02*
X00552003D01*
Y00978381D01*
X00556168Y00982546D01*
X00568664D01*
Y01015869D02*
Y01024199D01*
Y01020034D01*
X00543672D01*
X00547837Y01015869D01*
X00568664Y01036695D02*
X00564499D01*
Y01040861D01*
X00568664D01*
Y01036695D01*
X00547837Y01057522D02*
X00543672Y01061687D01*
Y01070018D01*
X00547837Y01074183D01*
X00564499D01*
X00568664Y01070018D01*
Y01061687D01*
X00564499Y01057522D01*
X00547837D01*
X00583757Y00776363D02*
X00579592Y00772197D01*
Y00763867D01*
X00583757Y00759701D01*
X00587922D01*
X00592088Y00763867D01*
Y00772197D01*
X00596253Y00776363D01*
X00600418D01*
X00604584Y00772197D01*
Y00763867D01*
X00600418Y00759701D01*
X00604584Y00784693D02*
X00579592D01*
X00596253D02*
X00587922Y00797189D01*
X00596253Y00784693D02*
X00604584Y00797189D01*
Y00813850D02*
Y00822181D01*
X00600418Y00826347D01*
X00592088D01*
X00587922Y00822181D01*
Y00813850D01*
X00592088Y00809685D01*
X00600418D01*
X00604584Y00813850D01*
Y00834677D02*
Y00843008D01*
Y00838842D01*
X00579592D01*
Y00834677D01*
X00583757Y00859669D02*
X00587922D01*
Y00855504D01*
Y00863834D01*
Y00859669D01*
X00600418D01*
X00604584Y00863834D01*
Y00888826D02*
Y00880496D01*
X00600418Y00876330D01*
X00592088D01*
X00587922Y00880496D01*
Y00888826D01*
X00592088Y00892992D01*
X00596253D01*
Y00876330D01*
X00587922Y00917983D02*
Y00905488D01*
X00592088Y00901322D01*
X00600418D01*
X00604584Y00905488D01*
Y00917983D01*
X00579592Y00926314D02*
X00604584D01*
X00592088D01*
X00587922Y00930480D01*
Y00938810D01*
X00592088Y00942975D01*
X00604584D01*
X00579592Y00992959D02*
Y00976298D01*
X00604584D01*
Y00992959D01*
X00592088Y00976298D02*
Y00984629D01*
X00587922Y01001290D02*
X00600418D01*
X00604584Y01005455D01*
Y01017951D01*
X00587922D01*
Y01026282D02*
X00604584D01*
X00596253D01*
X00592088Y01030447D01*
X00587922Y01034613D01*
Y01038778D01*
X00604584Y01055439D02*
Y01063770D01*
X00600418Y01067935D01*
X00592088D01*
X00587922Y01063770D01*
Y01055439D01*
X00592088Y01051274D01*
X00600418D01*
X00604584Y01055439D01*
X00579592Y01076266D02*
X00604584D01*
Y01088762D01*
X00600418Y01092927D01*
X00596253D01*
X00592088D01*
X00587922Y01088762D01*
Y01076266D01*
X00604584Y01105423D02*
Y01113754D01*
X00600418Y01117919D01*
X00592088D01*
X00587922Y01113754D01*
Y01105423D01*
X00592088Y01101258D01*
X00600418D01*
X00604584Y01105423D01*
X00583757Y01130415D02*
X00587922D01*
Y01126249D01*
Y01134580D01*
Y01130415D01*
X00600418D01*
X00604584Y01134580D01*
X00615512Y00907570D02*
X00619677D01*
Y00903405D01*
Y00911736D01*
Y00907570D01*
X00632173D01*
X00636338Y00911736D01*
Y00936728D02*
Y00928397D01*
X00632173Y00924231D01*
X00623842D01*
X00619677Y00928397D01*
Y00936728D01*
X00623842Y00940893D01*
X00628008D01*
Y00924231D01*
X00619677Y00953389D02*
Y00961719D01*
X00623842Y00965885D01*
X00636338D01*
Y00953389D01*
X00632173Y00949223D01*
X00628008Y00953389D01*
Y00965885D01*
X00636338Y00974215D02*
X00619677D01*
Y00978381D01*
X00623842Y00982546D01*
X00636338D01*
X00623842D01*
X00619677Y00986711D01*
X00623842Y00990877D01*
X00636338D01*
X00672258Y00920066D02*
Y00903405D01*
X00655596Y00920066D01*
X00651431D01*
X00647266Y00915901D01*
Y00907570D01*
X00651431Y00903405D01*
Y00928397D02*
X00647266Y00932562D01*
Y00940893D01*
X00651431Y00945058D01*
X00668092D01*
X00672258Y00940893D01*
Y00932562D01*
X00668092Y00928397D01*
X00651431D01*
X00672258Y00953389D02*
Y00961719D01*
Y00957554D01*
X00647266D01*
X00651431Y00953389D01*
X00647266Y00990877D02*
Y00974215D01*
X00659762D01*
X00655596Y00982546D01*
Y00986711D01*
X00659762Y00990877D01*
X00668092D01*
X00672258Y00986711D01*
Y00978381D01*
X00668092Y00974215D01*
X00376265Y00907907D02*
Y00897750D01*
X00391500D01*
Y00907907D01*
X00383882Y00897750D02*
Y00902828D01*
X00391500Y00912985D02*
X00381343D01*
Y00920603D01*
X00383882Y00923142D01*
X00391500D01*
X00381343Y00938377D02*
Y00930759D01*
X00383882Y00928220D01*
X00388961D01*
X00391500Y00930759D01*
Y00938377D01*
Y00945994D02*
Y00951073D01*
X00388961Y00953612D01*
X00383882D01*
X00381343Y00951073D01*
Y00945994D01*
X00383882Y00943455D01*
X00388961D01*
X00391500Y00945994D01*
X00376265Y00968847D02*
X00391500D01*
Y00961229D01*
X00388961Y00958690D01*
X00383882D01*
X00381343Y00961229D01*
Y00968847D01*
X00391500Y00981543D02*
Y00976465D01*
X00388961Y00973925D01*
X00383882D01*
X00381343Y00976465D01*
Y00981543D01*
X00383882Y00984082D01*
X00386422D01*
Y00973925D01*
X00381343Y00989161D02*
X00391500D01*
X00386422D01*
X00383882Y00991700D01*
X00381343Y00994239D01*
Y00996778D01*
X00391500Y01012013D02*
X00376265D01*
X00383882Y01004396D01*
Y01014552D01*
X00376265Y00760676D02*
Y00750519D01*
X00391500D01*
Y00760676D01*
X00383882Y00750519D02*
Y00755597D01*
X00391500Y00765754D02*
X00381343D01*
Y00773372D01*
X00383882Y00775911D01*
X00391500D01*
X00381343Y00791146D02*
Y00783528D01*
X00383882Y00780989D01*
X00388961D01*
X00391500Y00783528D01*
Y00791146D01*
Y00798763D02*
Y00803842D01*
X00388961Y00806381D01*
X00383882D01*
X00381343Y00803842D01*
Y00798763D01*
X00383882Y00796224D01*
X00388961D01*
X00391500Y00798763D01*
X00376265Y00821616D02*
X00391500D01*
Y00813998D01*
X00388961Y00811459D01*
X00383882D01*
X00381343Y00813998D01*
Y00821616D01*
X00391500Y00834312D02*
Y00829234D01*
X00388961Y00826694D01*
X00383882D01*
X00381343Y00829234D01*
Y00834312D01*
X00383882Y00836851D01*
X00386422D01*
Y00826694D01*
X00381343Y00841929D02*
X00391500D01*
X00386422D01*
X00383882Y00844469D01*
X00381343Y00847008D01*
Y00849547D01*
X00378804Y00857165D02*
X00376265Y00859704D01*
Y00864782D01*
X00378804Y00867321D01*
X00381343D01*
X00383882Y00864782D01*
Y00862243D01*
Y00864782D01*
X00386422Y00867321D01*
X00388961D01*
X00391500Y00864782D01*
Y00859704D01*
X00388961Y00857165D01*
X00376265Y00595407D02*
Y00585250D01*
X00391500D01*
Y00595407D01*
X00383882Y00585250D02*
Y00590328D01*
X00391500Y00600485D02*
X00381343D01*
Y00608103D01*
X00383882Y00610642D01*
X00391500D01*
X00381343Y00625877D02*
Y00618259D01*
X00383882Y00615720D01*
X00388961D01*
X00391500Y00618259D01*
Y00625877D01*
Y00633494D02*
Y00638573D01*
X00388961Y00641112D01*
X00383882D01*
X00381343Y00638573D01*
Y00633494D01*
X00383882Y00630955D01*
X00388961D01*
X00391500Y00633494D01*
X00376265Y00656347D02*
X00391500D01*
Y00648729D01*
X00388961Y00646190D01*
X00383882D01*
X00381343Y00648729D01*
Y00656347D01*
X00391500Y00669043D02*
Y00663965D01*
X00388961Y00661425D01*
X00383882D01*
X00381343Y00663965D01*
Y00669043D01*
X00383882Y00671582D01*
X00386422D01*
Y00661425D01*
X00381343Y00676661D02*
X00391500D01*
X00386422D01*
X00383882Y00679200D01*
X00381343Y00681739D01*
Y00684278D01*
X00391500Y00702052D02*
Y00691896D01*
X00381343Y00702052D01*
X00378804D01*
X00376265Y00699513D01*
Y00694435D01*
X00378804Y00691896D01*
X01266500Y01072750D02*
Y01082907D01*
X01271578Y01087985D01*
X01276657Y01082907D01*
Y01072750D01*
Y01080368D01*
X01266500D01*
X01281735Y01087985D02*
Y01072750D01*
X01289353D01*
X01291892Y01075289D01*
Y01085446D01*
X01289353Y01087985D01*
X01281735D01*
X01307127Y01085446D02*
X01304588Y01087985D01*
X01299509D01*
X01296970Y01085446D01*
Y01075289D01*
X01299509Y01072750D01*
X01304588D01*
X01307127Y01075289D01*
X01312205Y01072750D02*
X01317284D01*
X01314744D01*
Y01087985D01*
X01312205Y01085446D01*
X01324901D02*
X01327440Y01087985D01*
X01332519D01*
X01335058Y01085446D01*
Y01075289D01*
X01332519Y01072750D01*
X01327440D01*
X01324901Y01075289D01*
Y01085446D01*
X01041500Y01072750D02*
Y01082907D01*
X01046578Y01087985D01*
X01051657Y01082907D01*
Y01072750D01*
Y01080368D01*
X01041500D01*
X01056735Y01087985D02*
Y01072750D01*
X01064353D01*
X01066892Y01075289D01*
Y01085446D01*
X01064353Y01087985D01*
X01056735D01*
X01082127Y01085446D02*
X01079588Y01087985D01*
X01074509D01*
X01071970Y01085446D01*
Y01075289D01*
X01074509Y01072750D01*
X01079588D01*
X01082127Y01075289D01*
X01087205D02*
X01089744Y01072750D01*
X01094823D01*
X01097362Y01075289D01*
Y01085446D01*
X01094823Y01087985D01*
X01089744D01*
X01087205Y01085446D01*
Y01082907D01*
X01089744Y01080368D01*
X01097362D01*
X01563765Y00714157D02*
Y00704000D01*
X01579000D01*
Y00714157D01*
X01571382Y00704000D02*
Y00709078D01*
X01563765Y00719235D02*
X01579000Y00729392D01*
X01563765D02*
X01579000Y00719235D01*
X01563765Y00734470D02*
Y00744627D01*
Y00739548D01*
X01579000D01*
X01563765Y00749705D02*
Y00754784D01*
Y00752244D01*
X01579000D01*
Y00749705D01*
Y00754784D01*
Y00762401D02*
Y00767479D01*
Y00764940D01*
X01563765D01*
X01566304Y00762401D01*
Y00775097D02*
X01563765Y00777636D01*
Y00782714D01*
X01566304Y00785254D01*
X01576461D01*
X01579000Y00782714D01*
Y00777636D01*
X01576461Y00775097D01*
X01566304D01*
X01563765Y00814157D02*
Y00804000D01*
X01579000D01*
Y00814157D01*
X01571382Y00804000D02*
Y00809078D01*
X01563765Y00819235D02*
X01579000Y00829392D01*
X01563765D02*
X01579000Y00819235D01*
X01563765Y00834470D02*
Y00844627D01*
Y00839548D01*
X01579000D01*
X01563765Y00849705D02*
Y00854784D01*
Y00852244D01*
X01579000D01*
Y00849705D01*
Y00854784D01*
X01576461Y00862401D02*
X01579000Y00864940D01*
Y00870019D01*
X01576461Y00872558D01*
X01566304D01*
X01563765Y00870019D01*
Y00864940D01*
X01566304Y00862401D01*
X01568843D01*
X01571382Y00864940D01*
Y00872558D01*
X01488765Y00714157D02*
Y00704000D01*
X01504000D01*
Y00714157D01*
X01496382Y00704000D02*
Y00709078D01*
X01488765Y00719235D02*
X01504000Y00729392D01*
X01488765D02*
X01504000Y00719235D01*
X01488765Y00734470D02*
Y00744627D01*
Y00739548D01*
X01504000D01*
X01488765Y00749705D02*
Y00754784D01*
Y00752244D01*
X01504000D01*
Y00749705D01*
Y00754784D01*
X01491304Y00762401D02*
X01488765Y00764940D01*
Y00770019D01*
X01491304Y00772558D01*
X01493843D01*
X01496382Y00770019D01*
X01498922Y00772558D01*
X01501461D01*
X01504000Y00770019D01*
Y00764940D01*
X01501461Y00762401D01*
X01498922D01*
X01496382Y00764940D01*
X01493843Y00762401D01*
X01491304D01*
X01496382Y00764940D02*
Y00770019D01*
X01488765Y00814157D02*
Y00804000D01*
X01504000D01*
Y00814157D01*
X01496382Y00804000D02*
Y00809078D01*
X01488765Y00819235D02*
X01504000Y00829392D01*
X01488765D02*
X01504000Y00819235D01*
X01488765Y00834470D02*
Y00844627D01*
Y00839548D01*
X01504000D01*
X01488765Y00849705D02*
Y00854784D01*
Y00852244D01*
X01504000D01*
Y00849705D01*
Y00854784D01*
X01488765Y00862401D02*
Y00872558D01*
X01491304D01*
X01501461Y00862401D01*
X01504000D01*
X01413765Y00714157D02*
Y00704000D01*
X01429000D01*
Y00714157D01*
X01421382Y00704000D02*
Y00709078D01*
X01413765Y00719235D02*
X01429000Y00729392D01*
X01413765D02*
X01429000Y00719235D01*
X01413765Y00734470D02*
Y00744627D01*
Y00739548D01*
X01429000D01*
X01413765Y00749705D02*
Y00754784D01*
Y00752244D01*
X01429000D01*
Y00749705D01*
Y00754784D01*
X01413765Y00772558D02*
X01416304Y00767479D01*
X01421382Y00762401D01*
X01426461D01*
X01429000Y00764940D01*
Y00770019D01*
X01426461Y00772558D01*
X01423922D01*
X01421382Y00770019D01*
Y00762401D01*
X01413765Y00814157D02*
Y00804000D01*
X01429000D01*
Y00814157D01*
X01421382Y00804000D02*
Y00809078D01*
X01413765Y00819235D02*
X01429000Y00829392D01*
X01413765D02*
X01429000Y00819235D01*
X01413765Y00834470D02*
Y00844627D01*
Y00839548D01*
X01429000D01*
X01413765Y00849705D02*
Y00854784D01*
Y00852244D01*
X01429000D01*
Y00849705D01*
Y00854784D01*
X01413765Y00872558D02*
Y00862401D01*
X01421382D01*
X01418843Y00867479D01*
Y00870019D01*
X01421382Y00872558D01*
X01426461D01*
X01429000Y00870019D01*
Y00864940D01*
X01426461Y00862401D01*
X01332515Y00714157D02*
Y00704000D01*
X01347750D01*
Y00714157D01*
X01340132Y00704000D02*
Y00709078D01*
X01332515Y00719235D02*
X01347750Y00729392D01*
X01332515D02*
X01347750Y00719235D01*
X01332515Y00734470D02*
Y00744627D01*
Y00739548D01*
X01347750D01*
X01332515Y00749705D02*
Y00754784D01*
Y00752244D01*
X01347750D01*
Y00749705D01*
Y00754784D01*
Y00770019D02*
X01332515D01*
X01340132Y00762401D01*
Y00772558D01*
X01332515Y00814157D02*
Y00804000D01*
X01347750D01*
Y00814157D01*
X01340132Y00804000D02*
Y00809078D01*
X01332515Y00819235D02*
X01347750Y00829392D01*
X01332515D02*
X01347750Y00819235D01*
X01332515Y00834470D02*
Y00844627D01*
Y00839548D01*
X01347750D01*
X01332515Y00849705D02*
Y00854784D01*
Y00852244D01*
X01347750D01*
Y00849705D01*
Y00854784D01*
X01335054Y00862401D02*
X01332515Y00864940D01*
Y00870019D01*
X01335054Y00872558D01*
X01337593D01*
X01340132Y00870019D01*
Y00867479D01*
Y00870019D01*
X01342672Y00872558D01*
X01345211D01*
X01347750Y00870019D01*
Y00864940D01*
X01345211Y00862401D01*
X01251265Y00714157D02*
Y00704000D01*
X01266500D01*
Y00714157D01*
X01258883Y00704000D02*
Y00709078D01*
X01251265Y00719235D02*
X01266500Y00729392D01*
X01251265D02*
X01266500Y00719235D01*
X01251265Y00734470D02*
Y00744627D01*
Y00739548D01*
X01266500D01*
X01251265Y00749705D02*
Y00754784D01*
Y00752244D01*
X01266500D01*
Y00749705D01*
Y00754784D01*
Y00772558D02*
Y00762401D01*
X01256343Y00772558D01*
X01253804D01*
X01251265Y00770019D01*
Y00764940D01*
X01253804Y00762401D01*
X01251265Y00814157D02*
Y00804000D01*
X01266500D01*
Y00814157D01*
X01258883Y00804000D02*
Y00809078D01*
X01251265Y00819235D02*
X01266500Y00829392D01*
X01251265D02*
X01266500Y00819235D01*
X01251265Y00834470D02*
Y00844627D01*
Y00839548D01*
X01266500D01*
X01251265Y00849705D02*
Y00854784D01*
Y00852244D01*
X01266500D01*
Y00849705D01*
Y00854784D01*
Y00862401D02*
Y00867479D01*
Y00864940D01*
X01251265D01*
X01253804Y00862401D01*
X00779000Y00816500D02*
Y00831735D01*
X00786618D01*
X00789157Y00829196D01*
Y00824118D01*
X00786618Y00821578D01*
X00779000D01*
X00784078D02*
X00789157Y00816500D01*
X00801853D02*
Y00831735D01*
X00794235Y00824118D01*
X00804392D01*
X00809470Y00819039D02*
X00812009Y00816500D01*
X00817088D01*
X00819627Y00819039D01*
Y00829196D01*
X00817088Y00831735D01*
X00812009D01*
X00809470Y00829196D01*
Y00826657D01*
X00812009Y00824118D01*
X00819627D01*
X00779000Y00841500D02*
Y00856735D01*
X00786618D01*
X00789157Y00854196D01*
Y00849118D01*
X00786618Y00846578D01*
X00779000D01*
X00784078D02*
X00789157Y00841500D01*
X00801853D02*
Y00856735D01*
X00794235Y00849118D01*
X00804392D01*
X00809470Y00854196D02*
X00812009Y00856735D01*
X00817088D01*
X00819627Y00854196D01*
Y00851657D01*
X00817088Y00849118D01*
X00819627Y00846578D01*
Y00844039D01*
X00817088Y00841500D01*
X00812009D01*
X00809470Y00844039D01*
Y00846578D01*
X00812009Y00849118D01*
X00809470Y00851657D01*
Y00854196D01*
X00812009Y00849118D02*
X00817088D01*
X00845250Y00785250D02*
Y00800485D01*
X00852868D01*
X00855407Y00797946D01*
Y00792868D01*
X00852868Y00790328D01*
X00845250D01*
X00850328D02*
X00855407Y00785250D01*
X00868103D02*
Y00800485D01*
X00860485Y00792868D01*
X00870642D01*
X00885877Y00800485D02*
X00880798Y00797946D01*
X00875720Y00792868D01*
Y00787789D01*
X00878259Y00785250D01*
X00883338D01*
X00885877Y00787789D01*
Y00790328D01*
X00883338Y00792868D01*
X00875720D01*
X00560250Y00654000D02*
Y00669235D01*
X00567868D01*
X00570407Y00666696D01*
Y00661618D01*
X00567868Y00659078D01*
X00560250D01*
X00565328D02*
X00570407Y00654000D01*
X00583103D02*
Y00669235D01*
X00575485Y00661618D01*
X00585642D01*
X00600877Y00669235D02*
X00590720D01*
Y00661618D01*
X00595798Y00664157D01*
X00598338D01*
X00600877Y00661618D01*
Y00656539D01*
X00598338Y00654000D01*
X00593259D01*
X00590720Y00656539D01*
X00560250Y00679000D02*
Y00694235D01*
X00567868D01*
X00570407Y00691696D01*
Y00686618D01*
X00567868Y00684078D01*
X00560250D01*
X00565328D02*
X00570407Y00679000D01*
X00583103D02*
Y00694235D01*
X00575485Y00686618D01*
X00585642D01*
X00598338Y00679000D02*
Y00694235D01*
X00590720Y00686618D01*
X00600877D01*
X00845250Y00736750D02*
Y00751985D01*
X00852868D01*
X00855407Y00749446D01*
Y00744368D01*
X00852868Y00741828D01*
X00845250D01*
X00850328D02*
X00855407Y00736750D01*
X00868103D02*
Y00751985D01*
X00860485Y00744368D01*
X00870642D01*
X00875720Y00749446D02*
X00878259Y00751985D01*
X00883338D01*
X00885877Y00749446D01*
Y00746907D01*
X00883338Y00744368D01*
X00880798D01*
X00883338D01*
X00885877Y00741828D01*
Y00739289D01*
X00883338Y00736750D01*
X00878259D01*
X00875720Y00739289D01*
X00779000Y00672750D02*
Y00687985D01*
X00786618D01*
X00789157Y00685446D01*
Y00680368D01*
X00786618Y00677828D01*
X00779000D01*
X00784078D02*
X00789157Y00672750D01*
X00801853D02*
Y00687985D01*
X00794235Y00680368D01*
X00804392D01*
X00819627Y00672750D02*
X00809470D01*
X00819627Y00682907D01*
Y00685446D01*
X00817088Y00687985D01*
X00812009D01*
X00809470Y00685446D01*
X00354000Y00347750D02*
Y00362985D01*
X00361618D01*
X00364157Y00360446D01*
Y00355368D01*
X00361618Y00352828D01*
X00354000D01*
X00359078D02*
X00364157Y00347750D01*
X00376853D02*
Y00362985D01*
X00369235Y00355368D01*
X00379392D01*
X00384470Y00347750D02*
X00389548D01*
X00387009D01*
Y00362985D01*
X00384470Y00360446D01*
X00560250Y00397750D02*
Y00412985D01*
X00567868D01*
X00570407Y00410446D01*
Y00405368D01*
X00567868Y00402828D01*
X00560250D01*
X00565328D02*
X00570407Y00397750D01*
X00583103D02*
Y00412985D01*
X00575485Y00405368D01*
X00585642D01*
X00590720Y00410446D02*
X00593259Y00412985D01*
X00598338D01*
X00600877Y00410446D01*
Y00400289D01*
X00598338Y00397750D01*
X00593259D01*
X00590720Y00400289D01*
Y00410446D01*
X00604000Y01191500D02*
Y01201657D01*
X00609078Y01206735D01*
X00614157Y01201657D01*
Y01191500D01*
Y01199118D01*
X00604000D01*
X00619235Y01206735D02*
Y01191500D01*
X00626853D01*
X00629392Y01194039D01*
Y01204196D01*
X00626853Y01206735D01*
X00619235D01*
X00644627Y01204196D02*
X00642088Y01206735D01*
X00637009D01*
X00634470Y01204196D01*
Y01194039D01*
X00637009Y01191500D01*
X00642088D01*
X00644627Y01194039D01*
X00649705Y01204196D02*
X00652244Y01206735D01*
X00657323D01*
X00659862Y01204196D01*
Y01201657D01*
X00657323Y01199118D01*
X00654784D01*
X00657323D01*
X00659862Y01196578D01*
Y01194039D01*
X00657323Y01191500D01*
X00652244D01*
X00649705Y01194039D01*
X01016500Y01191500D02*
Y01201657D01*
X01021578Y01206735D01*
X01026657Y01201657D01*
Y01191500D01*
Y01199118D01*
X01016500D01*
X01031735Y01206735D02*
Y01191500D01*
X01039353D01*
X01041892Y01194039D01*
Y01204196D01*
X01039353Y01206735D01*
X01031735D01*
X01057127Y01204196D02*
X01054588Y01206735D01*
X01049509D01*
X01046970Y01204196D01*
Y01194039D01*
X01049509Y01191500D01*
X01054588D01*
X01057127Y01194039D01*
X01072362Y01206735D02*
X01067284Y01204196D01*
X01062205Y01199118D01*
Y01194039D01*
X01064744Y01191500D01*
X01069823D01*
X01072362Y01194039D01*
Y01196578D01*
X01069823Y01199118D01*
X01062205D01*
X00466500Y01191500D02*
Y01201657D01*
X00471578Y01206735D01*
X00476657Y01201657D01*
Y01191500D01*
Y01199118D01*
X00466500D01*
X00481735Y01206735D02*
Y01191500D01*
X00489353D01*
X00491892Y01194039D01*
Y01204196D01*
X00489353Y01206735D01*
X00481735D01*
X00507127Y01204196D02*
X00504588Y01206735D01*
X00499509D01*
X00496970Y01204196D01*
Y01194039D01*
X00499509Y01191500D01*
X00504588D01*
X00507127Y01194039D01*
X00522362Y01191500D02*
X00512205D01*
X00522362Y01201657D01*
Y01204196D01*
X00519823Y01206735D01*
X00514744D01*
X00512205Y01204196D01*
X00879000Y01191500D02*
Y01201657D01*
X00884078Y01206735D01*
X00889157Y01201657D01*
Y01191500D01*
Y01199118D01*
X00879000D01*
X00894235Y01206735D02*
Y01191500D01*
X00901853D01*
X00904392Y01194039D01*
Y01204196D01*
X00901853Y01206735D01*
X00894235D01*
X00919627Y01204196D02*
X00917088Y01206735D01*
X00912009D01*
X00909470Y01204196D01*
Y01194039D01*
X00912009Y01191500D01*
X00917088D01*
X00919627Y01194039D01*
X00934862Y01206735D02*
X00924705D01*
Y01199118D01*
X00929784Y01201657D01*
X00932323D01*
X00934862Y01199118D01*
Y01194039D01*
X00932323Y01191500D01*
X00927244D01*
X00924705Y01194039D01*
X01291500Y01191500D02*
Y01201657D01*
X01296578Y01206735D01*
X01301657Y01201657D01*
Y01191500D01*
Y01199118D01*
X01291500D01*
X01306735Y01206735D02*
Y01191500D01*
X01314353D01*
X01316892Y01194039D01*
Y01204196D01*
X01314353Y01206735D01*
X01306735D01*
X01332127Y01204196D02*
X01329588Y01206735D01*
X01324509D01*
X01321970Y01204196D01*
Y01194039D01*
X01324509Y01191500D01*
X01329588D01*
X01332127Y01194039D01*
X01337205Y01204196D02*
X01339744Y01206735D01*
X01344823D01*
X01347362Y01204196D01*
Y01201657D01*
X01344823Y01199118D01*
X01347362Y01196578D01*
Y01194039D01*
X01344823Y01191500D01*
X01339744D01*
X01337205Y01194039D01*
Y01196578D01*
X01339744Y01199118D01*
X01337205Y01201657D01*
Y01204196D01*
X01339744Y01199118D02*
X01344823D01*
X00335250Y01191500D02*
Y01201657D01*
X00340328Y01206735D01*
X00345407Y01201657D01*
Y01191500D01*
Y01199118D01*
X00335250D01*
X00350485Y01206735D02*
Y01191500D01*
X00358103D01*
X00360642Y01194039D01*
Y01204196D01*
X00358103Y01206735D01*
X00350485D01*
X00375877Y01204196D02*
X00373338Y01206735D01*
X00368259D01*
X00365720Y01204196D01*
Y01194039D01*
X00368259Y01191500D01*
X00373338D01*
X00375877Y01194039D01*
X00380955Y01191500D02*
X00386034D01*
X00383494D01*
Y01206735D01*
X00380955Y01204196D01*
X00741500Y01191500D02*
Y01201657D01*
X00746578Y01206735D01*
X00751657Y01201657D01*
Y01191500D01*
Y01199118D01*
X00741500D01*
X00756735Y01206735D02*
Y01191500D01*
X00764353D01*
X00766892Y01194039D01*
Y01204196D01*
X00764353Y01206735D01*
X00756735D01*
X00782127Y01204196D02*
X00779588Y01206735D01*
X00774509D01*
X00771970Y01204196D01*
Y01194039D01*
X00774509Y01191500D01*
X00779588D01*
X00782127Y01194039D01*
X00794823Y01191500D02*
Y01206735D01*
X00787205Y01199118D01*
X00797362D01*
X01154000Y01191500D02*
Y01201657D01*
X01159078Y01206735D01*
X01164157Y01201657D01*
Y01191500D01*
Y01199118D01*
X01154000D01*
X01169235Y01206735D02*
Y01191500D01*
X01176853D01*
X01179392Y01194039D01*
Y01204196D01*
X01176853Y01206735D01*
X01169235D01*
X01194627Y01204196D02*
X01192088Y01206735D01*
X01187009D01*
X01184470Y01204196D01*
Y01194039D01*
X01187009Y01191500D01*
X01192088D01*
X01194627Y01194039D01*
X01199705Y01206735D02*
X01209862D01*
Y01204196D01*
X01199705Y01194039D01*
Y01191500D01*
X01279000Y00981735D02*
Y00969039D01*
X01281539Y00966500D01*
X01286617D01*
X01289157Y00969039D01*
Y00981735D01*
X01304392Y00979196D02*
X01301853Y00981735D01*
X01296774D01*
X01294235Y00979196D01*
Y00976657D01*
X01296774Y00974118D01*
X01301853D01*
X01304392Y00971578D01*
Y00969039D01*
X01301853Y00966500D01*
X01296774D01*
X01294235Y00969039D01*
X01309470Y00966500D02*
Y00976657D01*
X01314548Y00981735D01*
X01319627Y00976657D01*
Y00966500D01*
Y00974118D01*
X01309470D01*
X01324705Y00966500D02*
Y00981735D01*
X01332323D01*
X01334862Y00979196D01*
Y00974118D01*
X01332323Y00971578D01*
X01324705D01*
X01329784D02*
X01334862Y00966500D01*
X01339940Y00981735D02*
X01350097D01*
X01345019D01*
Y00966500D01*
X01365332D02*
X01355175D01*
X01365332Y00976657D01*
Y00979196D01*
X01362793Y00981735D01*
X01357715D01*
X01355175Y00979196D01*
X01166500Y00981735D02*
Y00969039D01*
X01169039Y00966500D01*
X01174118D01*
X01176657Y00969039D01*
Y00981735D01*
X01191892Y00979196D02*
X01189353Y00981735D01*
X01184274D01*
X01181735Y00979196D01*
Y00976657D01*
X01184274Y00974118D01*
X01189353D01*
X01191892Y00971578D01*
Y00969039D01*
X01189353Y00966500D01*
X01184274D01*
X01181735Y00969039D01*
X01196970Y00966500D02*
Y00976657D01*
X01202048Y00981735D01*
X01207127Y00976657D01*
Y00966500D01*
Y00974118D01*
X01196970D01*
X01212205Y00966500D02*
Y00981735D01*
X01219823D01*
X01222362Y00979196D01*
Y00974118D01*
X01219823Y00971578D01*
X01212205D01*
X01217284D02*
X01222362Y00966500D01*
X01227440Y00981735D02*
X01237597D01*
X01232519D01*
Y00966500D01*
X01242675D02*
X01247754D01*
X01245215D01*
Y00981735D01*
X01242675Y00979196D01*
X00779000Y00647750D02*
Y00662985D01*
X00786618D01*
X00789157Y00660446D01*
Y00655368D01*
X00786618Y00652828D01*
X00779000D01*
X00784078D02*
X00789157Y00647750D01*
X00804392D02*
X00794235D01*
X00804392Y00657907D01*
Y00660446D01*
X00801853Y00662985D01*
X00796774D01*
X00794235Y00660446D01*
X00819627Y00662985D02*
X00814548Y00660446D01*
X00809470Y00655368D01*
Y00650289D01*
X00812009Y00647750D01*
X00817088D01*
X00819627Y00650289D01*
Y00652828D01*
X00817088Y00655368D01*
X00809470D01*
X00779000Y00622750D02*
Y00637985D01*
X00786618D01*
X00789157Y00635446D01*
Y00630368D01*
X00786618Y00627828D01*
X00779000D01*
X00784078D02*
X00789157Y00622750D01*
X00804392D02*
X00794235D01*
X00804392Y00632907D01*
Y00635446D01*
X00801853Y00637985D01*
X00796774D01*
X00794235Y00635446D01*
X00809470Y00637985D02*
X00819627D01*
Y00635446D01*
X00809470Y00625289D01*
Y00622750D01*
X01160250Y00891500D02*
Y00906735D01*
X01167868D01*
X01170407Y00904196D01*
Y00899118D01*
X01167868Y00896578D01*
X01160250D01*
X01165328D02*
X01170407Y00891500D01*
X01175485Y00904196D02*
X01178024Y00906735D01*
X01183103D01*
X01185642Y00904196D01*
Y00901657D01*
X01183103Y00899118D01*
X01180563D01*
X01183103D01*
X01185642Y00896578D01*
Y00894039D01*
X01183103Y00891500D01*
X01178024D01*
X01175485Y00894039D01*
X01190720Y00904196D02*
X01193259Y00906735D01*
X01198338D01*
X01200877Y00904196D01*
Y00894039D01*
X01198338Y00891500D01*
X01193259D01*
X01190720Y00894039D01*
Y00904196D01*
X00593020Y00522750D02*
Y00537985D01*
X00600638D01*
X00603177Y00535446D01*
Y00530368D01*
X00600638Y00527828D01*
X00593020D01*
X00598098D02*
X00603177Y00522750D01*
X00608255Y00535446D02*
X00610794Y00537985D01*
X00615873D01*
X00618412Y00535446D01*
Y00532907D01*
X00615873Y00530368D01*
X00618412Y00527828D01*
Y00525289D01*
X00615873Y00522750D01*
X00610794D01*
X00608255Y00525289D01*
Y00527828D01*
X00610794Y00530368D01*
X00608255Y00532907D01*
Y00535446D01*
X00610794Y00530368D02*
X00615873D01*
X00560250Y00546808D02*
Y00562043D01*
X00567868D01*
X00570407Y00559504D01*
Y00554425D01*
X00567868Y00551886D01*
X00560250D01*
X00565328D02*
X00570407Y00546808D01*
X00575485Y00562043D02*
X00585642D01*
Y00559504D01*
X00575485Y00549347D01*
Y00546808D01*
X01410250Y00966500D02*
Y00981495D01*
X01417748D01*
X01420247Y00978996D01*
Y00973998D01*
X01417748Y00971498D01*
X01410250D01*
X01415248D02*
X01420247Y00966500D01*
X01435242D02*
X01425245D01*
X01435242Y00976497D01*
Y00978996D01*
X01432743Y00981495D01*
X01427744D01*
X01425245Y00978996D01*
X01450237Y00981495D02*
X01440240D01*
Y00973998D01*
X01445239Y00976497D01*
X01447738D01*
X01450237Y00973998D01*
Y00968999D01*
X01447738Y00966500D01*
X01442740D01*
X01440240Y00968999D01*
X01447750Y01135250D02*
Y01150245D01*
X01455248D01*
X01457747Y01147746D01*
Y01142748D01*
X01455248Y01140248D01*
X01447750D01*
X01452748D02*
X01457747Y01135250D01*
X01472742D02*
X01462745D01*
X01472742Y01145247D01*
Y01147746D01*
X01470243Y01150245D01*
X01465244D01*
X01462745Y01147746D01*
X01477740Y01135250D02*
X01482739D01*
X01480240D01*
Y01150245D01*
X01477740Y01147746D01*
X01410250Y00991500D02*
Y01006495D01*
X01417748D01*
X01420247Y01003996D01*
Y00998998D01*
X01417748Y00996498D01*
X01410250D01*
X01415248D02*
X01420247Y00991500D01*
X01435242D02*
X01425245D01*
X01435242Y01001497D01*
Y01003996D01*
X01432743Y01006495D01*
X01427744D01*
X01425245Y01003996D01*
X01440240D02*
X01442740Y01006495D01*
X01447738D01*
X01450237Y01003996D01*
Y00993999D01*
X01447738Y00991500D01*
X01442740D01*
X01440240Y00993999D01*
Y01003996D01*
X01429000Y01072750D02*
Y01087745D01*
X01436498D01*
X01438997Y01085246D01*
Y01080248D01*
X01436498Y01077748D01*
X01429000D01*
X01433998D02*
X01438997Y01072750D01*
X01443995D02*
X01448994D01*
X01446494D01*
Y01087745D01*
X01443995Y01085246D01*
X01456491Y01075249D02*
X01458990Y01072750D01*
X01463989D01*
X01466488Y01075249D01*
Y01085246D01*
X01463989Y01087745D01*
X01458990D01*
X01456491Y01085246D01*
Y01082747D01*
X01458990Y01080248D01*
X01466488D01*
X01410250Y01047750D02*
Y01062745D01*
X01417748D01*
X01420247Y01060246D01*
Y01055248D01*
X01417748Y01052748D01*
X01410250D01*
X01415248D02*
X01420247Y01047750D01*
X01435242D02*
X01425245D01*
X01435242Y01057747D01*
Y01060246D01*
X01432743Y01062745D01*
X01427744D01*
X01425245Y01060246D01*
X01447738Y01047750D02*
Y01062745D01*
X01440240Y01055248D01*
X01450237D01*
X01410250Y01029000D02*
Y01043995D01*
X01417748D01*
X01420247Y01041496D01*
Y01036498D01*
X01417748Y01033998D01*
X01410250D01*
X01415248D02*
X01420247Y01029000D01*
X01435242D02*
X01425245D01*
X01435242Y01038997D01*
Y01041496D01*
X01432743Y01043995D01*
X01427744D01*
X01425245Y01041496D01*
X01450237Y01029000D02*
X01440240D01*
X01450237Y01038997D01*
Y01041496D01*
X01447738Y01043995D01*
X01442740D01*
X01440240Y01041496D01*
X01654000Y00535250D02*
X01638765D01*
Y00542868D01*
X01641304Y00545407D01*
X01646382D01*
X01648922Y00542868D01*
Y00535250D01*
X01654000Y00550485D02*
X01643843D01*
Y00558103D01*
X01646382Y00560642D01*
X01654000D01*
Y00573338D02*
Y00568259D01*
X01651461Y00565720D01*
X01646382D01*
X01643843Y00568259D01*
Y00573338D01*
X01646382Y00575877D01*
X01648922D01*
Y00565720D01*
X01643843Y00580955D02*
X01651461D01*
X01654000Y00583494D01*
Y00591112D01*
X01643843D01*
X01654000Y00596190D02*
X01643843D01*
Y00598730D01*
X01646382Y00601269D01*
X01654000D01*
X01646382D01*
X01643843Y00603808D01*
X01646382Y00606347D01*
X01654000D01*
X01638765Y00621582D02*
X01641304Y00616504D01*
X01646382Y00611425D01*
X01651461D01*
X01654000Y00613965D01*
Y00619043D01*
X01651461Y00621582D01*
X01648922D01*
X01646382Y00619043D01*
Y00611425D01*
X01654000Y00641500D02*
X01638765D01*
Y00649118D01*
X01641304Y00651657D01*
X01646382D01*
X01648922Y00649118D01*
Y00641500D01*
X01654000Y00656735D02*
X01643843D01*
Y00664353D01*
X01646382Y00666892D01*
X01654000D01*
Y00679588D02*
Y00674509D01*
X01651461Y00671970D01*
X01646382D01*
X01643843Y00674509D01*
Y00679588D01*
X01646382Y00682127D01*
X01648922D01*
Y00671970D01*
X01643843Y00687205D02*
X01651461D01*
X01654000Y00689744D01*
Y00697362D01*
X01643843D01*
X01654000Y00702440D02*
X01643843D01*
Y00704979D01*
X01646382Y00707519D01*
X01654000D01*
X01646382D01*
X01643843Y00710058D01*
X01646382Y00712597D01*
X01654000D01*
X01638765Y00727832D02*
Y00717675D01*
X01646382D01*
X01643843Y00722754D01*
Y00725293D01*
X01646382Y00727832D01*
X01651461D01*
X01654000Y00725293D01*
Y00720215D01*
X01651461Y00717675D01*
X01654000Y00754000D02*
X01638765D01*
Y00761618D01*
X01641304Y00764157D01*
X01646382D01*
X01648922Y00761618D01*
Y00754000D01*
X01654000Y00769235D02*
X01643843D01*
Y00776853D01*
X01646382Y00779392D01*
X01654000D01*
Y00792088D02*
Y00787009D01*
X01651461Y00784470D01*
X01646382D01*
X01643843Y00787009D01*
Y00792088D01*
X01646382Y00794627D01*
X01648922D01*
Y00784470D01*
X01643843Y00799705D02*
X01651461D01*
X01654000Y00802244D01*
Y00809862D01*
X01643843D01*
X01654000Y00814940D02*
X01643843D01*
Y00817479D01*
X01646382Y00820019D01*
X01654000D01*
X01646382D01*
X01643843Y00822558D01*
X01646382Y00825097D01*
X01654000D01*
Y00837793D02*
X01638765D01*
X01646382Y00830175D01*
Y00840332D01*
X01654000Y00860250D02*
X01638765D01*
Y00867868D01*
X01641304Y00870407D01*
X01646382D01*
X01648922Y00867868D01*
Y00860250D01*
X01654000Y00875485D02*
X01643843D01*
Y00883103D01*
X01646382Y00885642D01*
X01654000D01*
Y00898338D02*
Y00893259D01*
X01651461Y00890720D01*
X01646382D01*
X01643843Y00893259D01*
Y00898338D01*
X01646382Y00900877D01*
X01648922D01*
Y00890720D01*
X01643843Y00905955D02*
X01651461D01*
X01654000Y00908494D01*
Y00916112D01*
X01643843D01*
X01654000Y00921190D02*
X01643843D01*
Y00923729D01*
X01646382Y00926269D01*
X01654000D01*
X01646382D01*
X01643843Y00928808D01*
X01646382Y00931347D01*
X01654000D01*
X01641304Y00936425D02*
X01638765Y00938965D01*
Y00944043D01*
X01641304Y00946582D01*
X01643843D01*
X01646382Y00944043D01*
Y00941504D01*
Y00944043D01*
X01648922Y00946582D01*
X01651461D01*
X01654000Y00944043D01*
Y00938965D01*
X01651461Y00936425D01*
X01654000Y00972750D02*
X01638765D01*
Y00980368D01*
X01641304Y00982907D01*
X01646382D01*
X01648922Y00980368D01*
Y00972750D01*
X01654000Y00987985D02*
X01643843D01*
Y00995603D01*
X01646382Y00998142D01*
X01654000D01*
Y01010838D02*
Y01005759D01*
X01651461Y01003220D01*
X01646382D01*
X01643843Y01005759D01*
Y01010838D01*
X01646382Y01013377D01*
X01648922D01*
Y01003220D01*
X01643843Y01018455D02*
X01651461D01*
X01654000Y01020994D01*
Y01028612D01*
X01643843D01*
X01654000Y01033690D02*
X01643843D01*
Y01036229D01*
X01646382Y01038769D01*
X01654000D01*
X01646382D01*
X01643843Y01041308D01*
X01646382Y01043847D01*
X01654000D01*
Y01059082D02*
Y01048925D01*
X01643843Y01059082D01*
X01641304D01*
X01638765Y01056543D01*
Y01051465D01*
X01641304Y01048925D01*
X01654000Y01091500D02*
X01638765D01*
Y01099118D01*
X01641304Y01101657D01*
X01646382D01*
X01648922Y01099118D01*
Y01091500D01*
X01654000Y01106735D02*
X01643843D01*
Y01114353D01*
X01646382Y01116892D01*
X01654000D01*
Y01129588D02*
Y01124509D01*
X01651461Y01121970D01*
X01646382D01*
X01643843Y01124509D01*
Y01129588D01*
X01646382Y01132127D01*
X01648922D01*
Y01121970D01*
X01643843Y01137205D02*
X01651461D01*
X01654000Y01139744D01*
Y01147362D01*
X01643843D01*
X01654000Y01152440D02*
X01643843D01*
Y01154979D01*
X01646382Y01157519D01*
X01654000D01*
X01646382D01*
X01643843Y01160058D01*
X01646382Y01162597D01*
X01654000D01*
Y01167675D02*
Y01172754D01*
Y01170215D01*
X01638765D01*
X01641304Y01167675D01*
X01497750Y00566500D02*
Y00581735D01*
X01505367D01*
X01507907Y00579196D01*
Y00574118D01*
X01505367Y00571578D01*
X01497750D01*
X01523142Y00566500D02*
X01512985D01*
X01523142Y00576657D01*
Y00579196D01*
X01520603Y00581735D01*
X01515524D01*
X01512985Y00579196D01*
X01372750Y00916500D02*
Y00931735D01*
X01380367D01*
X01382907Y00929196D01*
Y00924118D01*
X01380367Y00921578D01*
X01372750D01*
X01398142Y00931735D02*
X01387985D01*
Y00924118D01*
X01393063Y00926657D01*
X01395603D01*
X01398142Y00924118D01*
Y00919039D01*
X01395603Y00916500D01*
X01390524D01*
X01387985Y00919039D01*
X01595255Y01085250D02*
Y01090248D01*
Y01087749D01*
X01610250D01*
Y01085250D01*
Y01090248D01*
X01595255Y01097746D02*
X01610250D01*
Y01107743D01*
X01595255Y01112741D02*
X01610250D01*
Y01120239D01*
X01607751Y01122738D01*
X01597754D01*
X01595255Y01120239D01*
Y01112741D01*
X01597754Y01127736D02*
X01595255Y01130236D01*
Y01135234D01*
X01597754Y01137733D01*
X01600253D01*
X01602752Y01135234D01*
Y01132735D01*
Y01135234D01*
X01605252Y01137733D01*
X01607751D01*
X01610250Y01135234D01*
Y01130236D01*
X01607751Y01127736D01*
X01607755Y01016500D02*
Y01021498D01*
Y01018999D01*
X01622750D01*
Y01016500D01*
Y01021498D01*
X01607755Y01028996D02*
X01622750D01*
Y01038993D01*
X01607755Y01043991D02*
X01622750D01*
Y01051489D01*
X01620251Y01053988D01*
X01610254D01*
X01607755Y01051489D01*
Y01043991D01*
X01622750Y01068983D02*
Y01058986D01*
X01612753Y01068983D01*
X01610254D01*
X01607755Y01066484D01*
Y01061486D01*
X01610254Y01058986D01*
X01607755Y00954000D02*
Y00958998D01*
Y00956499D01*
X01622750D01*
Y00954000D01*
Y00958998D01*
X01607755Y00966496D02*
X01622750D01*
Y00976493D01*
X01607755Y00981491D02*
X01622750D01*
Y00988989D01*
X01620251Y00991488D01*
X01610254D01*
X01607755Y00988989D01*
Y00981491D01*
X01622750Y00996486D02*
Y01001485D01*
Y00998986D01*
X01607755D01*
X01610254Y00996486D01*
X00810250Y00400485D02*
X00815328D01*
X00812789D01*
Y00385250D01*
X00810250D01*
X00815328D01*
X00833103D02*
X00822946D01*
X00833103Y00395407D01*
Y00397946D01*
X00830563Y00400485D01*
X00825485D01*
X00822946Y00397946D01*
X00654000Y00400485D02*
X00659078D01*
X00656539D01*
Y00385250D01*
X00654000D01*
X00659078D01*
X00666696D02*
X00671774D01*
X00669235D01*
Y00400485D01*
X00666696Y00397946D01*
X00376265Y00439157D02*
Y00429000D01*
X00391500D01*
Y00439157D01*
X00383882Y00429000D02*
Y00434078D01*
X00391500Y00444235D02*
X00381343D01*
Y00451853D01*
X00383882Y00454392D01*
X00391500D01*
X00381343Y00469627D02*
Y00462009D01*
X00383882Y00459470D01*
X00388961D01*
X00391500Y00462009D01*
Y00469627D01*
Y00477244D02*
Y00482323D01*
X00388961Y00484862D01*
X00383882D01*
X00381343Y00482323D01*
Y00477244D01*
X00383882Y00474705D01*
X00388961D01*
X00391500Y00477244D01*
X00376265Y00500097D02*
X00391500D01*
Y00492480D01*
X00388961Y00489940D01*
X00383882D01*
X00381343Y00492480D01*
Y00500097D01*
X00391500Y00512793D02*
Y00507715D01*
X00388961Y00505175D01*
X00383882D01*
X00381343Y00507715D01*
Y00512793D01*
X00383882Y00515332D01*
X00386422D01*
Y00505175D01*
X00381343Y00520410D02*
X00391500D01*
X00386422D01*
X00383882Y00522950D01*
X00381343Y00525489D01*
Y00528028D01*
X00391500Y00535646D02*
Y00540724D01*
Y00538185D01*
X00376265D01*
X00378804Y00535646D01*
X01085250Y00919235D02*
Y00904000D01*
X01092868D01*
X01095407Y00906539D01*
Y00916696D01*
X01092868Y00919235D01*
X01085250D01*
X01100485D02*
X01110642D01*
Y00916696D01*
X01100485Y00906539D01*
Y00904000D01*
X01551497Y00922746D02*
X01548998Y00925245D01*
X01543999D01*
X01541500Y00922746D01*
Y00912749D01*
X01543999Y00910250D01*
X01548998D01*
X01551497Y00912749D01*
X01566492Y00910250D02*
X01556495D01*
X01566492Y00920247D01*
Y00922746D01*
X01563993Y00925245D01*
X01558994D01*
X01556495Y00922746D01*
X01578988Y00910250D02*
Y00925245D01*
X01571490Y00917748D01*
X01581487D01*
X00826657Y00935446D02*
X00824118Y00937985D01*
X00819039D01*
X00816500Y00935446D01*
Y00925289D01*
X00819039Y00922750D01*
X00824118D01*
X00826657Y00925289D01*
X00831735Y00935446D02*
X00834274Y00937985D01*
X00839353D01*
X00841892Y00935446D01*
Y00932907D01*
X00839353Y00930368D01*
X00836813D01*
X00839353D01*
X00841892Y00927828D01*
Y00925289D01*
X00839353Y00922750D01*
X00834274D01*
X00831735Y00925289D01*
X01196760Y00515523D02*
Y00500288D01*
X01204378D01*
X01206917Y00502827D01*
Y00505366D01*
X01204378Y00507906D01*
X01196760D01*
X01204378D01*
X01206917Y00510445D01*
Y00512984D01*
X01204378Y00515523D01*
X01196760D01*
X01211995D02*
X01222152D01*
X01217073D01*
Y00500288D01*
X01227230D02*
Y00515523D01*
X01237387Y00500288D01*
Y00515523D01*
X01252622D02*
X01247544Y00512984D01*
X01242465Y00507906D01*
Y00502827D01*
X01245004Y00500288D01*
X01250083D01*
X01252622Y00502827D01*
Y00505366D01*
X01250083Y00507906D01*
X01242465D01*
X01035250Y00512985D02*
Y00497750D01*
X01042868D01*
X01045407Y00500289D01*
Y00502828D01*
X01042868Y00505368D01*
X01035250D01*
X01042868D01*
X01045407Y00507907D01*
Y00510446D01*
X01042868Y00512985D01*
X01035250D01*
X01050485D02*
X01060642D01*
X01055563D01*
Y00497750D01*
X01065720D02*
Y00512985D01*
X01075877Y00497750D01*
Y00512985D01*
X01091112D02*
X01080955D01*
Y00505368D01*
X01086034Y00507907D01*
X01088573D01*
X01091112Y00505368D01*
Y00500289D01*
X01088573Y00497750D01*
X01083494D01*
X01080955Y00500289D01*
X01579000Y00425485D02*
Y00410250D01*
X01586617D01*
X01589157Y00412789D01*
Y00415328D01*
X01586617Y00417868D01*
X01579000D01*
X01586617D01*
X01589157Y00420407D01*
Y00422946D01*
X01586617Y00425485D01*
X01579000D01*
X01594235D02*
X01604392D01*
X01599313D01*
Y00410250D01*
X01609470D02*
Y00425485D01*
X01619627Y00410250D01*
Y00425485D01*
X01632323Y00410250D02*
Y00425485D01*
X01624705Y00417868D01*
X01634862D01*
X01416500Y00425485D02*
Y00410250D01*
X01424117D01*
X01426657Y00412789D01*
Y00415328D01*
X01424117Y00417868D01*
X01416500D01*
X01424117D01*
X01426657Y00420407D01*
Y00422946D01*
X01424117Y00425485D01*
X01416500D01*
X01431735D02*
X01441892D01*
X01436813D01*
Y00410250D01*
X01446970D02*
Y00425485D01*
X01457127Y00410250D01*
Y00425485D01*
X01462205Y00422946D02*
X01464744Y00425485D01*
X01469823D01*
X01472362Y00422946D01*
Y00420407D01*
X01469823Y00417868D01*
X01467284D01*
X01469823D01*
X01472362Y00415328D01*
Y00412789D01*
X01469823Y00410250D01*
X01464744D01*
X01462205Y00412789D01*
X01254000Y00425485D02*
Y00410250D01*
X01261618D01*
X01264157Y00412789D01*
Y00415328D01*
X01261618Y00417868D01*
X01254000D01*
X01261618D01*
X01264157Y00420407D01*
Y00422946D01*
X01261618Y00425485D01*
X01254000D01*
X01269235D02*
X01279392D01*
X01274313D01*
Y00410250D01*
X01284470D02*
Y00425485D01*
X01294627Y00410250D01*
Y00425485D01*
X01309862Y00410250D02*
X01299705D01*
X01309862Y00420407D01*
Y00422946D01*
X01307323Y00425485D01*
X01302244D01*
X01299705Y00422946D01*
X01360250Y00512985D02*
Y00497750D01*
X01367867D01*
X01370407Y00500289D01*
Y00502828D01*
X01367867Y00505368D01*
X01360250D01*
X01367867D01*
X01370407Y00507907D01*
Y00510446D01*
X01367867Y00512985D01*
X01360250D01*
X01375485D02*
X01385642D01*
X01380563D01*
Y00497750D01*
X01390720D02*
Y00512985D01*
X01400877Y00497750D01*
Y00512985D01*
X01405955D02*
X01416112D01*
Y00510446D01*
X01405955Y00500289D01*
Y00497750D01*
X01522750Y00512985D02*
Y00497750D01*
X01530367D01*
X01532907Y00500289D01*
Y00502828D01*
X01530367Y00505368D01*
X01522750D01*
X01530367D01*
X01532907Y00507907D01*
Y00510446D01*
X01530367Y00512985D01*
X01522750D01*
X01537985D02*
X01548142D01*
X01543063D01*
Y00497750D01*
X01553220D02*
Y00512985D01*
X01563377Y00497750D01*
Y00512985D01*
X01568455Y00510446D02*
X01570994Y00512985D01*
X01576073D01*
X01578612Y00510446D01*
Y00507907D01*
X01576073Y00505368D01*
X01578612Y00502828D01*
Y00500289D01*
X01576073Y00497750D01*
X01570994D01*
X01568455Y00500289D01*
Y00502828D01*
X01570994Y00505368D01*
X01568455Y00507907D01*
Y00510446D01*
X01570994Y00505368D02*
X01576073D01*
X01035250Y00619235D02*
Y00604000D01*
X01042868D01*
X01045407Y00606539D01*
Y00609078D01*
X01042868Y00611618D01*
X01035250D01*
X01042868D01*
X01045407Y00614157D01*
Y00616696D01*
X01042868Y00619235D01*
X01035250D01*
X01050485D02*
X01060642D01*
X01055563D01*
Y00604000D01*
X01065720D02*
Y00619235D01*
X01075877Y00604000D01*
Y00619235D01*
X01080955Y00606539D02*
X01083494Y00604000D01*
X01088573D01*
X01091112Y00606539D01*
Y00616696D01*
X01088573Y00619235D01*
X01083494D01*
X01080955Y00616696D01*
Y00614157D01*
X01083494Y00611618D01*
X01091112D01*
X01304000Y00619235D02*
Y00604000D01*
X01311617D01*
X01314157Y00606539D01*
Y00609078D01*
X01311617Y00611618D01*
X01304000D01*
X01311617D01*
X01314157Y00614157D01*
Y00616696D01*
X01311617Y00619235D01*
X01304000D01*
X01319235D02*
X01329392D01*
X01324313D01*
Y00604000D01*
X01334470D02*
Y00619235D01*
X01344627Y00604000D01*
Y00619235D01*
X01349705Y00604000D02*
X01354784D01*
X01352244D01*
Y00619235D01*
X01349705Y00616696D01*
X01362401D02*
X01364940Y00619235D01*
X01370019D01*
X01372558Y00616696D01*
Y00606539D01*
X01370019Y00604000D01*
X01364940D01*
X01362401Y00606539D01*
Y00616696D01*
X00779000Y00872750D02*
Y00887985D01*
X00786618D01*
X00789157Y00885446D01*
Y00880368D01*
X00786618Y00877828D01*
X00779000D01*
X00784078D02*
X00789157Y00872750D01*
X00804392Y00887985D02*
X00794235D01*
Y00880368D01*
X00799313Y00882907D01*
X00801853D01*
X00804392Y00880368D01*
Y00875289D01*
X00801853Y00872750D01*
X00796774D01*
X00794235Y00875289D01*
X00809470Y00885446D02*
X00812009Y00887985D01*
X00817088D01*
X00819627Y00885446D01*
Y00875289D01*
X00817088Y00872750D01*
X00812009D01*
X00809470Y00875289D01*
Y00885446D01*
X00779000Y00897750D02*
Y00912985D01*
X00786618D01*
X00789157Y00910446D01*
Y00905368D01*
X00786618Y00902828D01*
X00779000D01*
X00784078D02*
X00789157Y00897750D01*
X00804392Y00912985D02*
X00794235D01*
Y00905368D01*
X00799313Y00907907D01*
X00801853D01*
X00804392Y00905368D01*
Y00900289D01*
X00801853Y00897750D01*
X00796774D01*
X00794235Y00900289D01*
X00809470Y00897750D02*
X00814548D01*
X00812009D01*
Y00912985D01*
X00809470Y00910446D01*
X00560250Y00591500D02*
Y00606735D01*
X00567868D01*
X00570407Y00604196D01*
Y00599118D01*
X00567868Y00596578D01*
X00560250D01*
X00565328D02*
X00570407Y00591500D01*
X00585642Y00606735D02*
X00575485D01*
Y00599118D01*
X00580563Y00601657D01*
X00583103D01*
X00585642Y00599118D01*
Y00594039D01*
X00583103Y00591500D01*
X00578024D01*
X00575485Y00594039D01*
X00600877Y00591500D02*
X00590720D01*
X00600877Y00601657D01*
Y00604196D01*
X00598338Y00606735D01*
X00593259D01*
X00590720Y00604196D01*
X00560250Y00635250D02*
Y00650485D01*
X00567868D01*
X00570407Y00647946D01*
Y00642868D01*
X00567868Y00640328D01*
X00560250D01*
X00565328D02*
X00570407Y00635250D01*
X00585642Y00650485D02*
X00575485D01*
Y00642868D01*
X00580563Y00645407D01*
X00583103D01*
X00585642Y00642868D01*
Y00637789D01*
X00583103Y00635250D01*
X00578024D01*
X00575485Y00637789D01*
X00590720Y00647946D02*
X00593259Y00650485D01*
X00598338D01*
X00600877Y00647946D01*
Y00645407D01*
X00598338Y00642868D01*
X00595798D01*
X00598338D01*
X00600877Y00640328D01*
Y00637789D01*
X00598338Y00635250D01*
X00593259D01*
X00590720Y00637789D01*
X00560250Y00569423D02*
Y00584658D01*
X00567868D01*
X00570407Y00582119D01*
Y00577041D01*
X00567868Y00574501D01*
X00560250D01*
X00565328D02*
X00570407Y00569423D01*
X00585642Y00584658D02*
X00575485D01*
Y00577041D01*
X00580563Y00579580D01*
X00583103D01*
X00585642Y00577041D01*
Y00571962D01*
X00583103Y00569423D01*
X00578024D01*
X00575485Y00571962D01*
X00598338Y00569423D02*
Y00584658D01*
X00590720Y00577041D01*
X00600877D01*
X00560250Y00503077D02*
Y00518312D01*
X00567868D01*
X00570407Y00515773D01*
Y00510695D01*
X00567868Y00508155D01*
X00560250D01*
X00565328D02*
X00570407Y00503077D01*
X00585642Y00518312D02*
X00575485D01*
Y00510695D01*
X00580563Y00513234D01*
X00583103D01*
X00585642Y00510695D01*
Y00505616D01*
X00583103Y00503077D01*
X00578024D01*
X00575485Y00505616D01*
X00600877Y00518312D02*
X00590720D01*
Y00510695D01*
X00595798Y00513234D01*
X00598338D01*
X00600877Y00510695D01*
Y00505616D01*
X00598338Y00503077D01*
X00593259D01*
X00590720Y00505616D01*
X00560250Y00480962D02*
Y00496197D01*
X00567868D01*
X00570407Y00493657D01*
Y00488579D01*
X00567868Y00486040D01*
X00560250D01*
X00565328D02*
X00570407Y00480962D01*
X00585642Y00496197D02*
X00575485D01*
Y00488579D01*
X00580563Y00491118D01*
X00583103D01*
X00585642Y00488579D01*
Y00483501D01*
X00583103Y00480962D01*
X00578024D01*
X00575485Y00483501D01*
X00600877Y00496197D02*
X00595798Y00493657D01*
X00590720Y00488579D01*
Y00483501D01*
X00593259Y00480962D01*
X00598338D01*
X00600877Y00483501D01*
Y00486040D01*
X00598338Y00488579D01*
X00590720D01*
X00560250Y00458846D02*
Y00474081D01*
X00567868D01*
X00570407Y00471542D01*
Y00466464D01*
X00567868Y00463924D01*
X00560250D01*
X00565328D02*
X00570407Y00458846D01*
X00585642Y00474081D02*
X00575485D01*
Y00466464D01*
X00580563Y00469003D01*
X00583103D01*
X00585642Y00466464D01*
Y00461385D01*
X00583103Y00458846D01*
X00578024D01*
X00575485Y00461385D01*
X00590720Y00474081D02*
X00600877D01*
Y00471542D01*
X00590720Y00461385D01*
Y00458846D01*
X01635250Y01206770D02*
X01620015D01*
Y01214388D01*
X01622554Y01216927D01*
X01627632D01*
X01630172Y01214388D01*
Y01206770D01*
X01635250Y01224544D02*
Y01229623D01*
X01632711Y01232162D01*
X01627632D01*
X01625093Y01229623D01*
Y01224544D01*
X01627632Y01222005D01*
X01632711D01*
X01635250Y01224544D01*
X01625093Y01237240D02*
X01632711D01*
X01635250Y01239779D01*
X01632711Y01242318D01*
X01635250Y01244858D01*
X01632711Y01247397D01*
X01625093D01*
X01635250Y01260093D02*
Y01255014D01*
X01632711Y01252475D01*
X01627632D01*
X01625093Y01255014D01*
Y01260093D01*
X01627632Y01262632D01*
X01630172D01*
Y01252475D01*
X01625093Y01267710D02*
X01635250D01*
X01630172D01*
X01627632Y01270249D01*
X01625093Y01272789D01*
Y01275328D01*
X01635250Y01282945D02*
Y01288024D01*
Y01285484D01*
X01620015D01*
X01622554Y01282945D01*
X01085250Y00425485D02*
Y00410250D01*
X01092868D01*
X01095407Y00412789D01*
Y00415328D01*
X01092868Y00417868D01*
X01085250D01*
X01092868D01*
X01095407Y00420407D01*
Y00422946D01*
X01092868Y00425485D01*
X01085250D01*
X01100485D02*
X01110642D01*
X01105563D01*
Y00410250D01*
X01115720D02*
Y00425485D01*
X01125877Y00410250D01*
Y00425485D01*
X01130955Y00410250D02*
X01136034D01*
X01133494D01*
Y00425485D01*
X01130955Y00422946D01*
X00766500Y01156735D02*
Y01144039D01*
X00769039Y01141500D01*
X00774118D01*
X00776657Y01144039D01*
Y01156735D01*
X00781735Y01154196D02*
X00784274Y01156735D01*
X00789353D01*
X00791892Y01154196D01*
Y01151657D01*
X00789353Y01149118D01*
X00786813D01*
X00789353D01*
X00791892Y01146578D01*
Y01144039D01*
X00789353Y01141500D01*
X00784274D01*
X00781735Y01144039D01*
X00504000Y00435250D02*
Y00450485D01*
X00511618D01*
X00514157Y00447946D01*
Y00442868D01*
X00511618Y00440328D01*
X00504000D01*
X00509078D02*
X00514157Y00435250D01*
X00519235Y00447946D02*
X00521774Y00450485D01*
X00526853D01*
X00529392Y00447946D01*
Y00445407D01*
X00526853Y00442868D01*
X00524313D01*
X00526853D01*
X00529392Y00440328D01*
Y00437789D01*
X00526853Y00435250D01*
X00521774D01*
X00519235Y00437789D01*
X00534470Y00447946D02*
X00537009Y00450485D01*
X00542088D01*
X00544627Y00447946D01*
Y00445407D01*
X00542088Y00442868D01*
X00544627Y00440328D01*
Y00437789D01*
X00542088Y00435250D01*
X00537009D01*
X00534470Y00437789D01*
Y00440328D01*
X00537009Y00442868D01*
X00534470Y00445407D01*
Y00447946D01*
X00537009Y00442868D02*
X00542088D01*
X00560250Y00610250D02*
Y00625485D01*
X00567868D01*
X00570407Y00622946D01*
Y00617868D01*
X00567868Y00615328D01*
X00560250D01*
X00565328D02*
X00570407Y00610250D01*
X00583103D02*
Y00625485D01*
X00575485Y00617868D01*
X00585642D01*
X00590720Y00625485D02*
X00600877D01*
Y00622946D01*
X00590720Y00612789D01*
Y00610250D01*
X00922750Y00972750D02*
Y00987985D01*
X00930368D01*
X00932907Y00985446D01*
Y00980368D01*
X00930368Y00977828D01*
X00922750D01*
X00945603Y00972750D02*
Y00987985D01*
X00937985Y00980368D01*
X00948142D01*
X01166500Y00941500D02*
Y00956735D01*
X01174118D01*
X01176657Y00954196D01*
Y00949118D01*
X01174118Y00946578D01*
X01166500D01*
X01181735Y00954196D02*
X01184274Y00956735D01*
X01189353D01*
X01191892Y00954196D01*
Y00951657D01*
X01189353Y00949118D01*
X01186813D01*
X01189353D01*
X01191892Y00946578D01*
Y00944039D01*
X01189353Y00941500D01*
X01184274D01*
X01181735Y00944039D01*
X01354250Y01085985D02*
Y01070750D01*
X01361868D01*
X01364407Y01073289D01*
Y01083446D01*
X01361868Y01085985D01*
X01354250D01*
X01369485Y01070750D02*
Y01085985D01*
X01379642Y01070750D01*
Y01085985D01*
X01384720Y01070750D02*
Y01085985D01*
X01389798Y01080907D01*
X01394877Y01085985D01*
Y01070750D01*
X01399955Y01085985D02*
X01410112Y01070750D01*
Y01085985D02*
X01399955Y01070750D01*
X01415190Y01085985D02*
Y01070750D01*
X01425347D01*
X00416500Y00972750D02*
Y00987985D01*
X00424118D01*
X00426657Y00985446D01*
Y00980368D01*
X00424118Y00977828D01*
X00416500D01*
X00431735Y00972750D02*
X00436813D01*
X00434274D01*
Y00987985D01*
X00431735Y00985446D01*
X01491504Y01163997D02*
X01489005Y01161498D01*
Y01156499D01*
X01491504Y01154000D01*
X01501501D01*
X01504000Y01156499D01*
Y01161498D01*
X01501501Y01163997D01*
X01496502D01*
Y01158998D01*
X01504000Y01168995D02*
X01489005D01*
X01504000Y01178992D01*
X01489005D01*
Y01183990D02*
X01504000D01*
Y01191488D01*
X01501501Y01193987D01*
X01491504D01*
X01489005Y01191488D01*
Y01183990D01*
X01521502Y01141504D02*
Y01151501D01*
X01516504Y01146503D02*
X01526501D01*
X01516504Y01156499D02*
X01514005Y01158998D01*
Y01163997D01*
X01516504Y01166496D01*
X01519003D01*
X01521502Y01163997D01*
Y01161498D01*
Y01163997D01*
X01524002Y01166496D01*
X01526501D01*
X01529000Y01163997D01*
Y01158998D01*
X01526501Y01156499D01*
X01529000Y01171494D02*
X01526501D01*
Y01173994D01*
X01529000D01*
Y01171494D01*
X01516504Y01183990D02*
X01514005Y01186489D01*
Y01191488D01*
X01516504Y01193987D01*
X01519003D01*
X01521502Y01191488D01*
Y01188989D01*
Y01191488D01*
X01524002Y01193987D01*
X01526501D01*
X01529000Y01191488D01*
Y01186489D01*
X01526501Y01183990D01*
X01546502Y01168995D02*
Y01178992D01*
X01541504Y01173994D02*
X01551501D01*
X01539005Y01193987D02*
Y01183990D01*
X01546502D01*
X01544003Y01188989D01*
Y01191488D01*
X01546502Y01193987D01*
X01551501D01*
X01554000Y01191488D01*
Y01186489D01*
X01551501Y01183990D01*
X01590252Y01156499D02*
Y01166496D01*
X01585254Y01161498D02*
X01595251D01*
X01597750Y01171494D02*
Y01176493D01*
Y01173994D01*
X01582755D01*
X01585254Y01171494D01*
X01597750Y01193987D02*
Y01183990D01*
X01587753Y01193987D01*
X01585254D01*
X01582755Y01191488D01*
Y01186489D01*
X01585254Y01183990D01*
D18*
X01139000Y00365750D02*
X01140000D01*
X01486750Y01229770D02*
X01487750D01*
X01301500Y00365750D02*
X01302500D01*
X01464000D02*
X01465000D01*
X01626500D02*
X01627500D01*
X00322000Y00436750D02*
Y00437750D01*
X00645250Y00353250D02*
X00646250D01*
X00807750D02*
X00808750D01*
X00322000Y00599250D02*
Y00600250D01*
Y00761750D02*
Y00762750D01*
Y00924250D02*
Y00925250D01*
X01692750Y01109250D02*
Y01110250D01*
Y00996750D02*
Y00997750D01*
Y00884250D02*
Y00885250D01*
Y00771750D02*
Y00772750D01*
Y00659250D02*
Y00660250D01*
Y00546750D02*
Y00547750D01*
X01284250Y01226000D02*
X01285250D01*
X00871750D02*
X00872750D01*
X00459250D02*
X00460250D01*
X01421750Y01226000D02*
X01422750D01*
X01009250Y01226000D02*
X01010250D01*
X00596750D02*
X00597750D01*
X01146750D02*
X01147750D01*
X00734250D02*
X00735250D01*
X01345750Y01130500D02*
X01346750D01*
X01290000Y00795750D02*
Y00796750D01*
Y00695750D02*
Y00696750D01*
X01366562Y00795750D02*
Y00796750D01*
Y00695750D02*
Y00696750D01*
X01443125Y00795750D02*
Y00796750D01*
Y00695750D02*
Y00696750D01*
X01519688Y00795750D02*
Y00796750D01*
Y00695750D02*
Y00696750D01*
X01596250Y00795750D02*
Y00796750D01*
Y00695750D02*
Y00696750D01*
X01070750Y01130500D02*
X01071750D01*
X01208250D02*
X01209250D01*
X01207500Y00584750D02*
X01208500D01*
X01045000D02*
X01046000D01*
X01532500Y00478500D02*
X01533500D01*
X01370000D02*
X01371000D01*
X01045000D02*
X01046000D01*
X01207500D02*
X01208500D01*
X01212000Y00998250D02*
X01213000D01*
X01337000D02*
X01338000D01*
X00497750Y00741500D02*
Y01141500D01*
Y00741500D02*
X00710250D01*
Y01141500D01*
X00571188D02*
X00630563D01*
X00497750D02*
X00571188D01*
X00630563D02*
X00710250D01*
D34*
X00424693Y00960250D02*
G03*
X00424693Y00960250I-00002693J00000000D01*
G01*
X00932693D02*
G03*
X00932693Y00960250I-00002693J00000000D01*
G01*
D35*
X00827250Y00949525D02*
G03*
X00827250Y00949525I-00001250J00000000D01*
G01*
X01524500Y01007050D02*
G03*
X01524500Y01007050I-00001250J00000000D01*
G01*
Y01069550D02*
G03*
X01524500Y01069550I-00001250J00000000D01*
G01*
Y01132050D02*
G03*
X01524500Y01132050I-00001250J00000000D01*
G01*
D36*
X00805250Y00960250D02*
G03*
X00805250Y00960250I-00003000J00000000D01*
G01*
D37*
X01216250Y01172750D02*
X01228250D01*
X00803750D02*
X00815750D01*
X01379750Y01172750D02*
X01391750D01*
X00967250D02*
X00979250D01*
X01353750Y01172750D02*
X01365750D01*
X00941250D02*
X00953250D01*
X01104250Y01066873D02*
X01116250D01*
X01104750Y01172750D02*
X01116750D01*
X01128250Y01066872D02*
X01140250D01*
X01078750Y01172750D02*
X01090750D01*
X01244250Y01065000D02*
X01256250D01*
X01218250Y01065000D02*
X01230250D01*
X01316250Y00397750D02*
X01328250D01*
X01478750Y00400000D02*
X01490750D01*
X00523480Y00392250D02*
Y00404250D01*
X00372500Y00383000D02*
X00384500D01*
X00864250Y00672500D02*
Y00684500D01*
Y00716250D02*
Y00728250D01*
X00523480Y00679750D02*
Y00691750D01*
Y00657635D02*
Y00669634D01*
X00864250Y00766250D02*
Y00778250D01*
Y00841250D02*
Y00853250D01*
Y00816250D02*
Y00828250D01*
X01141500Y00903750D02*
X01153500D01*
X01566500Y01141750D02*
Y01153750D01*
X01560250Y00935500D02*
Y00947500D01*
X01295500Y00499484D02*
Y00511484D01*
X01133000Y00498500D02*
Y00510500D01*
X01341250Y00397750D02*
X01353250D01*
X01178750D02*
X01190750D01*
X01022500Y00397750D02*
X01034500D01*
X00864250Y00648000D02*
Y00660000D01*
Y00623000D02*
Y00635000D01*
X01116500Y00903750D02*
X01128500D01*
X00523480Y00524942D02*
Y00536942D01*
Y00547058D02*
Y00559058D01*
X01154250Y00397750D02*
X01166250D01*
X00998000D02*
X01010000D01*
X00691750Y01172750D02*
X00703750D01*
X00554250D02*
X00566250D01*
X00416750D02*
X00428750D01*
X00791500Y00929250D02*
Y00941250D01*
X00666750Y01172750D02*
X00678750D01*
X00529250D02*
X00541250D01*
X00391750D02*
X00403750D01*
X01486000Y00496501D02*
X01498000D01*
X01648500Y00494516D02*
X01660500D01*
X01161000Y00602751D02*
X01173000D01*
X01272500Y00618750D02*
X01284500D01*
X00864250Y00873500D02*
Y00885500D01*
Y00898500D02*
Y00910500D01*
X00523480Y00591288D02*
Y00603288D01*
Y00635519D02*
Y00647519D01*
Y00569173D02*
Y00581173D01*
Y00502827D02*
Y00514827D01*
Y00480712D02*
Y00492711D01*
Y00458596D02*
Y00470596D01*
X01458000Y00498500D02*
Y00510500D01*
X01620500Y00498500D02*
Y00510500D01*
X01133000Y00604750D02*
Y00616750D01*
X01251750Y00604750D02*
Y00616750D01*
X01496750Y00560450D02*
X01572950D01*
X01496750Y00535050D02*
Y00560450D01*
Y00535050D02*
X01572950D01*
Y00560450D01*
X01290500Y00935450D02*
X01366700D01*
X01290500Y00910050D02*
Y00935450D01*
Y00910050D02*
X01366700D01*
Y00935450D01*
X00812250Y00950250D02*
Y01135250D01*
X00746250Y00950250D02*
Y01135250D01*
Y00950250D02*
X00812250D01*
X00746250Y01135250D02*
X00812250D01*
X01322000Y00497484D02*
X01334000D01*
X00523480Y00613404D02*
Y00625404D01*
Y00414365D02*
Y00426365D01*
X00829750Y01172750D02*
X00841750D01*
X01242250D02*
X01254250D01*
X01160000Y00495500D02*
X01172000D01*
X01504750Y00400000D02*
X01516750D01*
X01110900Y00966700D02*
X01160850D01*
X01110900Y00941300D02*
Y00966700D01*
Y00941300D02*
X01160850D01*
Y00966700D01*
X00522750Y00370250D02*
Y00382250D01*
X01539750Y00954000D02*
X01555750D01*
X01539750Y01004000D02*
X01555750D01*
Y00954000D02*
Y01004000D01*
X01539750Y00954000D02*
Y01004000D01*
Y01016500D02*
X01555750D01*
X01539750Y01066500D02*
X01555750D01*
Y01016500D02*
Y01066500D01*
X01539750Y01016500D02*
Y01066500D01*
Y01079000D02*
X01555750D01*
X01539750Y01129000D02*
X01555750D01*
Y01079000D02*
Y01129000D01*
X01539750Y01079000D02*
Y01129000D01*
X01485250Y01029250D02*
Y01041250D01*
Y01054250D02*
Y01066250D01*
Y01091750D02*
Y01103750D01*
Y00991750D02*
Y01003750D01*
Y01116750D02*
Y01128750D01*
Y00966750D02*
Y00978750D01*
M02*
