M48
;Layer_Color=9474304
;FILE_FORMAT=4:4
METRIC,LZ
;TYPE=PLATED
T1F00S00C0.4000
T2F00S00C0.8000
T3F00S00C0.9000
T4F00S00C1.1000
T5F00S00C3.2000
%
T01
X0054525Y0038275
X0069225Y0039075
X0089775Y00379
X0094775Y0037275
X0088525Y0032275
X0168525Y0042275
Y0047275
X0173525
Y0042275
X01554Y004165
X01504Y0046025
X0143525Y0054775
Y0059775
X0138525
Y0054775
X0133525
Y0059775
X015165Y00604
X0156025Y0059425
X0127275Y0043525
X0123525Y0078475
X01155248Y00739749
X01126248Y00716749
X01109248Y00714749
X01124248Y00685749
X0115225Y0067375
X01127248Y00644749
X01105248Y00640749
X0109125Y0064875
X01093248Y00630749
X0107725Y0063075
X01067978Y00625172
X0106925Y0059475
X00958249Y00591749
X0094525Y0057175
X00948Y005475
X00951414Y0053575
X0094825Y0052275
X00945249Y0050075
X00957507Y00506743
X00995248Y0045675
X0107275Y0043525
X0089375Y004665
X0088052Y0045873
X0087275Y0048525
X008665Y00429
X0084775Y0042275
X008415Y004415
X0080425Y0041975
X0080625Y0047275
X008415Y0052275
X0085125Y0064275
X0083125Y0067775
X0083Y00704
X0081025Y0074775
X00828Y00779
X0089525Y0067575
X0090025Y0065675
X0090625Y0062375
X0090525Y0060775
X01104Y0077275
X01101248Y00785749
X0067275Y00779
X00679Y00704
Y0068525
X0068525Y0067275
X00679Y0066025
X0066125Y0064175
X00681249Y00620749
X0067123Y0059775
X0065125Y0057475
X00642846Y00508904
X0063525Y0048525
X00623249Y0047375
X006915Y0047275
X0071025Y0042275
X0068225Y0040575
X0067325Y0041175
X00605249Y0041475
X00579Y0043525
X0055725Y0043975
X0054825Y0046475
X0055025Y0048675
Y00508904
X0058525Y0052975
X0058925Y0054575
X0055025Y0057475
X00550327Y0059775
X00550558Y0061975
X0055025Y0064175
Y0066375
Y0068575
X0056025Y0072275
Y0077275
X0051225Y0071575
X00519675Y00708325
X0049425Y0069675
X00487128Y0073175
X0043625Y0070775
Y0069725
X0043525Y0077275
X0049025Y0054875
X0049125Y0053575
X004915Y0052275
X0049725Y0047775
X0044525Y0044775
X0043225Y0043675
X0044725Y0042244
X0055125Y0039875
X0076025Y0042275
X0072275Y006165
X0038525Y0054775
X00379Y0041025
X0036025Y004165
X00354Y00404
X00392841Y00720159
X00385416Y00727584
X00395493Y00811993
X00393694Y00884211
X003665Y0096025
Y0098525
X0036925Y010125
X00379Y0102275
X0036025Y0109775
Y0114775
X0037825Y0116375
Y0118175
X0031025Y0114775
Y0109775
X0041025
Y010165
X00399428Y01004
X0046025Y0102275
X0051025Y0101025
X005165Y00979
X0055625Y0099775
X00550249Y01006749
X0055525Y0106575
X0057275Y01055241
X00583249Y01060749
X00579Y01079
X0061025Y0112275
Y0117275
X0068525Y0112275
X0073525Y0117275
X0076925Y01176
Y011655
X00754Y0102275
X0072325Y0093975
X006415Y00904
X0064775Y008915
X0066025Y0084775
Y00829
X004915Y0083525
X0048525Y0081025
X0043225Y0083675
X0059724Y0098525
X0053125Y0111575
X0052125Y0112475
X0046025Y0117275
X00804Y0113575
X0091025Y0112275
X0096025
X0101025
Y0107275
X0096025
X0091025
X0091725Y01172
Y011825
X0101025Y0117275
X01053538Y01167462
X01060962Y01160038
X0116025Y0117275
X0115125Y01077061
Y01066561
X0112275Y00979
X0118625Y009172
X01161Y0085375
X0114925Y0083975
X01106248Y00828749
X0118525Y008165
X009665Y0083525
X0094625Y0079975
X0095025Y009225
X00831Y009045
X0082925Y0088275
X00830625Y0084775
X00829Y0082275
X0079775Y0102275
X0120525Y010655
Y01076
X0119925Y01162
Y011725
X0133925Y0116375
Y0118175
X0131025Y0106025
X0146025
Y0103525
Y009915
Y0097275
X0141025Y00954
Y0092275
X0153525Y0089775
X0158525
X0147275Y0108525
X0146025Y0112275
X0155825Y0117775
X0156825Y0118775
X012415Y009415
X0123925Y009172
X0159775Y00979
Y0099775
X0159775Y0099775
X015915Y0101025
Y0102275
X0159775Y0104775
Y0106025
X0168525Y00879
X0163525Y0119775
T02
X0056025Y0031025
X0072275
X01079Y003165
X012415Y0031025
X01404
X0078225Y0109075
X013665Y0099775
X0141025Y01279
X0127275
X0113525
X0099775
X0086025
X0072275
X0058525
X0044775
T03
X0150945Y0054775
X0153485
X0156025
X0114815Y00954
X0112275
X013032Y0092275
X013286
X01354
T04
X0056025Y0034075
X0058525
X0061025
X0063525
X0072275
X0074775
X0077275
X0079775
X01054Y0035325
X01079
X01104
X01129
X012165
X012415
X012665
X012915
X01379
X01404
X01429
X01454
X015415
X015665
X015915
X016165
Y004665
X015915
X0170825Y00560267
Y00585267
Y00672767
Y00697767
Y00785267
X0161025Y0076025
Y0073525
Y0071025
X01533687
Y0073525
Y0076025
X01457125
Y0073525
Y0071025
X01380562
Y0073525
Y0076025
X01304
Y0073525
Y0071025
X012915Y0057275
X012665
X012415
X012165
Y004665
X012415
X012665
X012915
X01379
X01404
X01429
X01454
X015415
X015665
X01129
X01104
X01079
X01054
Y0057275
X01079
X01104
X01129
X003095Y0061025
Y0063525
Y0066025
Y0068525
Y0077275
Y0052275
Y0049775
Y0047275
Y0044775
Y0079775
Y0082275
Y0084775
Y0093525
Y0096025
Y0098525
Y0101025
X01129Y0101025
X01154
X01179
X0113525Y011165
X0111025
X0108525
X0122275
X0124775
X0127275
X0136025
X0138525
X0141025
X01329Y0101025
X01304
X01279
X01254
X01204
X01304Y0086025
Y0083525
Y0081025
X01380562
Y0083525
Y0086025
X01457125
Y0083525
Y0081025
X01533687
Y0083525
Y0086025
X0161025
Y0083525
Y0081025
X0170825Y00810267
Y00897767
Y00922767
Y01010267
Y01035267
Y01122767
Y01147767
X0157275Y0124227
X0154775
X0152275
X0149775
X0141025Y012395
X0138525
X0136025
X0127275Y012395
X0124775
X0122275
X0113525
X0111025
X0108525
X0099775
X0097275
X0094775
X0086025
X0083525
X0081025
X0072275
X0069775
X0067275
X0058525
X0056025
X0053525
X0044775
X0042275
X0039775
T05
X0031025Y0034775
X0171025
X01204Y00754
X0077275Y005665
X0171025Y0124775
X0031025
M30
