G04 Layer_Color=32896*
%FSAX44Y44*%
%MOMM*%
G71*
G01*
G75*
%ADD17C,0.2540*%
%ADD18C,0.5000*%
%ADD35C,0.2500*%
%ADD36C,0.6000*%
%ADD37C,0.2000*%
D17*
X00606501Y00828330D02*
X00601502Y00833328D01*
Y00843325D01*
X00606501Y00848323D01*
X00626494D01*
X00631493Y00843325D01*
Y00833328D01*
X00626494Y00828330D01*
X00611499Y00818333D02*
X00631493D01*
X00621496D01*
X00616498Y00813335D01*
X00611499Y00808336D01*
Y00803338D01*
X00631493Y00783344D02*
Y00773347D01*
X00626494Y00768349D01*
X00616498D01*
X00611499Y00773347D01*
Y00783344D01*
X00616498Y00788343D01*
X00626494D01*
X00631493Y00783344D01*
Y00758352D02*
Y00743357D01*
X00626494Y00738359D01*
X00621496Y00743357D01*
Y00753354D01*
X00616498Y00758352D01*
X00611499Y00753354D01*
Y00738359D01*
X00631493Y00728362D02*
Y00713367D01*
X00626494Y00708369D01*
X00621496Y00713367D01*
Y00723364D01*
X00616498Y00728362D01*
X00611499Y00723364D01*
Y00708369D01*
X00601502Y00668382D02*
X00631493D01*
Y00653386D01*
X00626494Y00648388D01*
X00621496D01*
X00616498D01*
X00611499Y00653386D01*
Y00668382D01*
X00631493Y00633393D02*
Y00623396D01*
X00626494Y00618398D01*
X00616498D01*
X00611499Y00623396D01*
Y00633393D01*
X00616498Y00638391D01*
X00626494D01*
X00631493Y00633393D01*
X00611499Y00603402D02*
Y00593406D01*
X00616498Y00588407D01*
X00631493D01*
Y00603402D01*
X00626494Y00608401D01*
X00621496Y00603402D01*
Y00588407D01*
X00611499Y00578411D02*
X00631493D01*
X00621496D01*
X00616498Y00573412D01*
X00611499Y00568414D01*
Y00563415D01*
X00601502Y00528427D02*
X00631493D01*
Y00543422D01*
X00626494Y00548420D01*
X00616498D01*
X00611499Y00543422D01*
Y00528427D01*
X00643587Y00840826D02*
X00663580D01*
X00673577Y00830829D01*
X00663580Y00820832D01*
X00643587D01*
X00673577Y00795840D02*
Y00805837D01*
X00668579Y00810835D01*
X00658582D01*
X00653584Y00805837D01*
Y00795840D01*
X00658582Y00790842D01*
X00663580D01*
Y00810835D01*
X00653584Y00780845D02*
X00673577D01*
X00663580D01*
X00658582Y00775847D01*
X00653584Y00770848D01*
Y00765850D01*
X00673577Y00750855D02*
Y00735860D01*
X00668579Y00730861D01*
X00663580Y00735860D01*
Y00745856D01*
X00658582Y00750855D01*
X00653584Y00745856D01*
Y00730861D01*
X00673577Y00720864D02*
Y00710868D01*
Y00715866D01*
X00653584D01*
Y00720864D01*
X00673577Y00690874D02*
Y00680878D01*
X00668579Y00675879D01*
X00658582D01*
X00653584Y00680878D01*
Y00690874D01*
X00658582Y00695873D01*
X00668579D01*
X00673577Y00690874D01*
Y00665882D02*
X00653584D01*
Y00650887D01*
X00658582Y00645889D01*
X00673577D01*
Y00605902D02*
Y00595905D01*
Y00600903D01*
X00643587D01*
X00648585Y00605902D01*
X00673577Y00580910D02*
X00668579D01*
Y00575911D01*
X00673577D01*
Y00580910D01*
X00648585Y00555918D02*
X00643587Y00550919D01*
Y00540923D01*
X00648585Y00535924D01*
X00668579D01*
X00673577Y00540923D01*
Y00550919D01*
X00668579Y00555918D01*
X00648585D01*
X00690669Y00968284D02*
X00685671Y00973283D01*
Y00983279D01*
X00690669Y00988278D01*
X00695668D01*
X00700666Y00983279D01*
Y00973283D01*
X00705665Y00968284D01*
X00710663D01*
X00715661Y00973283D01*
Y00983279D01*
X00710663Y00988278D01*
X00715661Y00958288D02*
X00685671D01*
X00705665D02*
X00695668Y00943292D01*
X00705665Y00958288D02*
X00715661Y00943292D01*
Y00923299D02*
Y00913302D01*
X00710663Y00908304D01*
X00700666D01*
X00695668Y00913302D01*
Y00923299D01*
X00700666Y00928297D01*
X00710663D01*
X00715661Y00923299D01*
Y00898307D02*
Y00888310D01*
Y00893309D01*
X00685671D01*
Y00898307D01*
X00690669Y00868317D02*
X00695668D01*
Y00873315D01*
Y00863318D01*
Y00868317D01*
X00710663D01*
X00715661Y00863318D01*
Y00833328D02*
Y00843325D01*
X00710663Y00848323D01*
X00700666D01*
X00695668Y00843325D01*
Y00833328D01*
X00700666Y00828330D01*
X00705665D01*
Y00848323D01*
X00695668Y00798339D02*
Y00813335D01*
X00700666Y00818333D01*
X00710663D01*
X00715661Y00813335D01*
Y00798339D01*
X00685671Y00788343D02*
X00715661D01*
X00700666D01*
X00695668Y00783344D01*
Y00773347D01*
X00700666Y00768349D01*
X00715661D01*
X00685671Y00708369D02*
Y00728362D01*
X00715661D01*
Y00708369D01*
X00700666Y00728362D02*
Y00718365D01*
X00695668Y00698372D02*
X00710663D01*
X00715661Y00693373D01*
Y00678378D01*
X00695668D01*
Y00668382D02*
X00715661D01*
X00705665D01*
X00700666Y00663383D01*
X00695668Y00658385D01*
Y00653386D01*
X00715661Y00633393D02*
Y00623396D01*
X00710663Y00618398D01*
X00700666D01*
X00695668Y00623396D01*
Y00633393D01*
X00700666Y00638391D01*
X00710663D01*
X00715661Y00633393D01*
X00685671Y00608401D02*
X00715661D01*
Y00593406D01*
X00710663Y00588407D01*
X00705665D01*
X00700666D01*
X00695668Y00593406D01*
Y00608401D01*
X00715661Y00573412D02*
Y00563415D01*
X00710663Y00558417D01*
X00700666D01*
X00695668Y00563415D01*
Y00573412D01*
X00700666Y00578411D01*
X00710663D01*
X00715661Y00573412D01*
X00690669Y00543422D02*
X00695668D01*
Y00548420D01*
Y00538424D01*
Y00543422D01*
X00710663D01*
X00715661Y00538424D01*
X00690669Y00488440D02*
X00695668D01*
Y00493438D01*
Y00483441D01*
Y00488440D01*
X00710663D01*
X00715661Y00483441D01*
Y00453451D02*
Y00463448D01*
X00710663Y00468446D01*
X00700666D01*
X00695668Y00463448D01*
Y00453451D01*
X00700666Y00448453D01*
X00705665D01*
Y00468446D01*
X00695668Y00433457D02*
Y00423461D01*
X00700666Y00418462D01*
X00715661D01*
Y00433457D01*
X00710663Y00438456D01*
X00705665Y00433457D01*
Y00418462D01*
X00715661Y00408466D02*
X00695668D01*
Y00403467D01*
X00700666Y00398469D01*
X00715661D01*
X00700666D01*
X00695668Y00393470D01*
X00700666Y00388472D01*
X00715661D01*
X00757746Y00720864D02*
Y00740858D01*
X00737752Y00720864D01*
X00732754D01*
X00727756Y00725863D01*
Y00735860D01*
X00732754Y00740858D01*
Y00710868D02*
X00727756Y00705869D01*
Y00695873D01*
X00732754Y00690874D01*
X00752747D01*
X00757746Y00695873D01*
Y00705869D01*
X00752747Y00710868D01*
X00732754D01*
X00757746Y00680878D02*
Y00670881D01*
Y00675879D01*
X00727756D01*
X00732754Y00680878D01*
X00727756Y00635892D02*
Y00655885D01*
X00742751D01*
X00737752Y00645889D01*
Y00640890D01*
X00742751Y00635892D01*
X00752747D01*
X00757746Y00640890D01*
Y00650887D01*
X00752747Y00655885D01*
X01437593Y01157446D02*
X01440132Y01159985D01*
X01445211D01*
X01447750Y01157446D01*
Y01147289D01*
X01445211Y01144750D01*
X01440132D01*
X01437593Y01147289D01*
X01432515Y01144750D02*
X01427437D01*
X01429976D01*
Y01159985D01*
X01432515Y01157446D01*
X01412202Y01144750D02*
Y01159985D01*
X01419819Y01152368D01*
X01409662D01*
X00875093Y01104196D02*
X00877633Y01106735D01*
X00882711D01*
X00885250Y01104196D01*
Y01094039D01*
X00882711Y01091500D01*
X00877633D01*
X00875093Y01094039D01*
X00870015Y01104196D02*
X00867476Y01106735D01*
X00862397D01*
X00859858Y01104196D01*
Y01101657D01*
X00862397Y01099118D01*
X00864937D01*
X00862397D01*
X00859858Y01096578D01*
Y01094039D01*
X00862397Y01091500D01*
X00867476D01*
X00870015Y01094039D01*
X00854780Y01106735D02*
X00844623D01*
Y01104196D01*
X00854780Y01094039D01*
Y01091500D01*
X00700093Y01104196D02*
X00702633Y01106735D01*
X00707711D01*
X00710250Y01104196D01*
Y01094039D01*
X00707711Y01091500D01*
X00702633D01*
X00700093Y01094039D01*
X00695015Y01104196D02*
X00692476Y01106735D01*
X00687397D01*
X00684858Y01104196D01*
Y01101657D01*
X00687397Y01099118D01*
X00689937D01*
X00687397D01*
X00684858Y01096578D01*
Y01094039D01*
X00687397Y01091500D01*
X00692476D01*
X00695015Y01094039D01*
X00669623Y01106735D02*
X00679780D01*
Y01099118D01*
X00674702Y01101657D01*
X00672162D01*
X00669623Y01099118D01*
Y01094039D01*
X00672162Y01091500D01*
X00677241D01*
X00679780Y01094039D01*
X01747750Y00654000D02*
Y00669235D01*
X01740132D01*
X01737593Y00666696D01*
Y00661618D01*
X01740132Y00659078D01*
X01747750D01*
X01742672D02*
X01737593Y00654000D01*
X01724897D02*
Y00669235D01*
X01732515Y00661618D01*
X01722358D01*
X01185250Y00962985D02*
Y00950289D01*
X01182711Y00947750D01*
X01177633D01*
X01175093Y00950289D01*
Y00962985D01*
X01159858Y00947750D02*
X01170015D01*
X01159858Y00957907D01*
Y00960446D01*
X01162397Y00962985D01*
X01167476D01*
X01170015Y00960446D01*
X01597750Y01100485D02*
Y01087789D01*
X01595211Y01085250D01*
X01590132D01*
X01587593Y01087789D01*
Y01100485D01*
X01582515Y01085250D02*
X01577437D01*
X01579976D01*
Y01100485D01*
X01582515Y01097946D01*
X01460250Y00566500D02*
Y00581735D01*
X01452632D01*
X01450093Y00579196D01*
Y00574118D01*
X01452632Y00571578D01*
X01460250D01*
X01455172D02*
X01450093Y00566500D01*
X01445015Y00563961D02*
X01434858D01*
X01429780Y00581735D02*
X01424702D01*
X01427241D01*
Y00566500D01*
X01429780D01*
X01424702D01*
X01417084D02*
Y00581735D01*
X01406927Y00566500D01*
Y00581735D01*
X01401849D02*
Y00566500D01*
Y00574118D01*
X01391692D01*
Y00581735D01*
Y00566500D01*
X01386614D02*
X01381535D01*
X01384075D01*
Y00581735D01*
X01386614Y00579196D01*
X01335250Y00891500D02*
Y00906735D01*
X01327632D01*
X01325093Y00904196D01*
Y00899118D01*
X01327632Y00896578D01*
X01335250D01*
X01330172D02*
X01325093Y00891500D01*
X01309858D02*
X01320015D01*
X01309858Y00901657D01*
Y00904196D01*
X01312397Y00906735D01*
X01317476D01*
X01320015Y00904196D01*
X01304780D02*
X01302241Y00906735D01*
X01297162D01*
X01294623Y00904196D01*
Y00901657D01*
X01297162Y00899118D01*
X01294623Y00896578D01*
Y00894039D01*
X01297162Y00891500D01*
X01302241D01*
X01304780Y00894039D01*
Y00896578D01*
X01302241Y00899118D01*
X01304780Y00901657D01*
Y00904196D01*
X01302241Y00899118D02*
X01297162D01*
X01335250Y00872750D02*
Y00887985D01*
X01327632D01*
X01325093Y00885446D01*
Y00880368D01*
X01327632Y00877828D01*
X01335250D01*
X01330172D02*
X01325093Y00872750D01*
X01309858D02*
X01320015D01*
X01309858Y00882907D01*
Y00885446D01*
X01312397Y00887985D01*
X01317476D01*
X01320015Y00885446D01*
X01304780Y00875289D02*
X01302241Y00872750D01*
X01297162D01*
X01294623Y00875289D01*
Y00885446D01*
X01297162Y00887985D01*
X01302241D01*
X01304780Y00885446D01*
Y00882907D01*
X01302241Y00880368D01*
X01294623D01*
X01522750Y00654000D02*
Y00669235D01*
X01515132D01*
X01512593Y00666696D01*
Y00661618D01*
X01515132Y00659078D01*
X01522750D01*
X01517672D02*
X01512593Y00654000D01*
X01507515Y00666696D02*
X01504976Y00669235D01*
X01499897D01*
X01497358Y00666696D01*
Y00664157D01*
X01499897Y00661618D01*
X01502437D01*
X01499897D01*
X01497358Y00659078D01*
Y00656539D01*
X01499897Y00654000D01*
X01504976D01*
X01507515Y00656539D01*
X01492280Y00669235D02*
X01482123D01*
Y00666696D01*
X01492280Y00656539D01*
Y00654000D01*
X01497750Y01041500D02*
Y01056735D01*
X01490132D01*
X01487593Y01054196D01*
Y01049118D01*
X01490132Y01046578D01*
X01497750D01*
X01492672D02*
X01487593Y01041500D01*
X01482515Y01054196D02*
X01479976Y01056735D01*
X01474897D01*
X01472358Y01054196D01*
Y01051657D01*
X01474897Y01049118D01*
X01477437D01*
X01474897D01*
X01472358Y01046578D01*
Y01044039D01*
X01474897Y01041500D01*
X01479976D01*
X01482515Y01044039D01*
X01457123Y01056735D02*
X01462202Y01054196D01*
X01467280Y01049118D01*
Y01044039D01*
X01464741Y01041500D01*
X01459662D01*
X01457123Y01044039D01*
Y01046578D01*
X01459662Y01049118D01*
X01467280D01*
X01497750Y01004000D02*
Y01019235D01*
X01490132D01*
X01487593Y01016696D01*
Y01011618D01*
X01490132Y01009078D01*
X01497750D01*
X01492672D02*
X01487593Y01004000D01*
X01482515Y01016696D02*
X01479976Y01019235D01*
X01474897D01*
X01472358Y01016696D01*
Y01014157D01*
X01474897Y01011618D01*
X01477437D01*
X01474897D01*
X01472358Y01009078D01*
Y01006539D01*
X01474897Y01004000D01*
X01479976D01*
X01482515Y01006539D01*
X01457123Y01019235D02*
X01467280D01*
Y01011618D01*
X01462202Y01014157D01*
X01459662D01*
X01457123Y01011618D01*
Y01006539D01*
X01459662Y01004000D01*
X01464741D01*
X01467280Y01006539D01*
X01497750Y01066500D02*
Y01081735D01*
X01490132D01*
X01487593Y01079196D01*
Y01074118D01*
X01490132Y01071578D01*
X01497750D01*
X01492672D02*
X01487593Y01066500D01*
X01482515Y01079196D02*
X01479976Y01081735D01*
X01474897D01*
X01472358Y01079196D01*
Y01076657D01*
X01474897Y01074118D01*
X01477437D01*
X01474897D01*
X01472358Y01071578D01*
Y01069039D01*
X01474897Y01066500D01*
X01479976D01*
X01482515Y01069039D01*
X01459662Y01066500D02*
Y01081735D01*
X01467280Y01074118D01*
X01457123D01*
X01454000Y00985250D02*
Y01000485D01*
X01446382D01*
X01443843Y00997946D01*
Y00992868D01*
X01446382Y00990328D01*
X01454000D01*
X01448922D02*
X01443843Y00985250D01*
X01438765Y00997946D02*
X01436226Y01000485D01*
X01431147D01*
X01428608Y00997946D01*
Y00995407D01*
X01431147Y00992868D01*
X01433687D01*
X01431147D01*
X01428608Y00990328D01*
Y00987789D01*
X01431147Y00985250D01*
X01436226D01*
X01438765Y00987789D01*
X01413373Y00985250D02*
X01423530D01*
X01413373Y00995407D01*
Y00997946D01*
X01415912Y01000485D01*
X01420991D01*
X01423530Y00997946D01*
X01454000Y01022750D02*
Y01037985D01*
X01446382D01*
X01443843Y01035446D01*
Y01030368D01*
X01446382Y01027828D01*
X01454000D01*
X01448922D02*
X01443843Y01022750D01*
X01438765Y01035446D02*
X01436226Y01037985D01*
X01431147D01*
X01428608Y01035446D01*
Y01032907D01*
X01431147Y01030368D01*
X01433687D01*
X01431147D01*
X01428608Y01027828D01*
Y01025289D01*
X01431147Y01022750D01*
X01436226D01*
X01438765Y01025289D01*
X01423530Y01035446D02*
X01420991Y01037985D01*
X01415912D01*
X01413373Y01035446D01*
Y01032907D01*
X01415912Y01030368D01*
X01418452D01*
X01415912D01*
X01413373Y01027828D01*
Y01025289D01*
X01415912Y01022750D01*
X01420991D01*
X01423530Y01025289D01*
X01497750Y00966500D02*
Y00981735D01*
X01490132D01*
X01487593Y00979196D01*
Y00974118D01*
X01490132Y00971578D01*
X01497750D01*
X01492672D02*
X01487593Y00966500D01*
X01482515Y00979196D02*
X01479976Y00981735D01*
X01474897D01*
X01472358Y00979196D01*
Y00976657D01*
X01474897Y00974118D01*
X01477437D01*
X01474897D01*
X01472358Y00971578D01*
Y00969039D01*
X01474897Y00966500D01*
X01479976D01*
X01482515Y00969039D01*
X01467280Y00966500D02*
X01462202D01*
X01464741D01*
Y00981735D01*
X01467280Y00979196D01*
X01622750Y00554000D02*
Y00569235D01*
X01615132D01*
X01612593Y00566696D01*
Y00561618D01*
X01615132Y00559078D01*
X01622750D01*
X01617672D02*
X01612593Y00554000D01*
X01597358D02*
X01607515D01*
X01597358Y00564157D01*
Y00566696D01*
X01599897Y00569235D01*
X01604976D01*
X01607515Y00566696D01*
X01592280D02*
X01589741Y00569235D01*
X01584662D01*
X01582123Y00566696D01*
Y00564157D01*
X01584662Y00561618D01*
X01587202D01*
X01584662D01*
X01582123Y00559078D01*
Y00556539D01*
X01584662Y00554000D01*
X01589741D01*
X01592280Y00556539D01*
X01729000Y01060250D02*
Y01075485D01*
X01721382D01*
X01718843Y01072946D01*
Y01067868D01*
X01721382Y01065328D01*
X01729000D01*
X01723922D02*
X01718843Y01060250D01*
X01703608Y01075485D02*
X01708687Y01072946D01*
X01713765Y01067868D01*
Y01062789D01*
X01711226Y01060250D01*
X01706147D01*
X01703608Y01062789D01*
Y01065328D01*
X01706147Y01067868D01*
X01713765D01*
X01747750Y00585250D02*
Y00600485D01*
X01740132D01*
X01737593Y00597946D01*
Y00592868D01*
X01740132Y00590328D01*
X01747750D01*
X01742672D02*
X01737593Y00585250D01*
X01722358Y00600485D02*
X01732515D01*
Y00592868D01*
X01727437Y00595407D01*
X01724897D01*
X01722358Y00592868D01*
Y00587789D01*
X01724897Y00585250D01*
X01729976D01*
X01732515Y00587789D01*
X01729000Y00722750D02*
Y00737985D01*
X01721382D01*
X01718843Y00735446D01*
Y00730368D01*
X01721382Y00727828D01*
X01729000D01*
X01723922D02*
X01718843Y00722750D01*
X01713765Y00735446D02*
X01711226Y00737985D01*
X01706147D01*
X01703608Y00735446D01*
Y00732907D01*
X01706147Y00730368D01*
X01708687D01*
X01706147D01*
X01703608Y00727828D01*
Y00725289D01*
X01706147Y00722750D01*
X01711226D01*
X01713765Y00725289D01*
X01747750Y00810250D02*
Y00825485D01*
X01740132D01*
X01737593Y00822946D01*
Y00817868D01*
X01740132Y00815328D01*
X01747750D01*
X01742672D02*
X01737593Y00810250D01*
X01722358D02*
X01732515D01*
X01722358Y00820407D01*
Y00822946D01*
X01724897Y00825485D01*
X01729976D01*
X01732515Y00822946D01*
X01729000Y00947750D02*
Y00962985D01*
X01721382D01*
X01718843Y00960446D01*
Y00955368D01*
X01721382Y00952828D01*
X01729000D01*
X01723922D02*
X01718843Y00947750D01*
X01713765D02*
X01708687D01*
X01711226D01*
Y00962985D01*
X01713765Y00960446D01*
X01629000Y00669235D02*
X01623922D01*
X01626461D01*
Y00654000D01*
X01629000D01*
X01623922D01*
X01616304Y00669235D02*
Y00654000D01*
X01606147D01*
X01601069Y00669235D02*
Y00654000D01*
X01593452D01*
X01590912Y00656539D01*
Y00666696D01*
X01593452Y00669235D01*
X01601069D01*
X01578216Y00654000D02*
Y00669235D01*
X01585834Y00661618D01*
X01575677D01*
X01479000Y00631735D02*
Y00616500D01*
X01471382D01*
X01468843Y00619039D01*
Y00629196D01*
X01471382Y00631735D01*
X01479000D01*
X01463765Y00629196D02*
X01461226Y00631735D01*
X01456147D01*
X01453608Y00629196D01*
Y00626657D01*
X01456147Y00624118D01*
X01453608Y00621578D01*
Y00619039D01*
X01456147Y00616500D01*
X01461226D01*
X01463765Y00619039D01*
Y00621578D01*
X01461226Y00624118D01*
X01463765Y00626657D01*
Y00629196D01*
X01461226Y00624118D02*
X01456147D01*
X01679000Y01075485D02*
Y01060250D01*
X01671382D01*
X01668843Y01062789D01*
Y01072946D01*
X01671382Y01075485D01*
X01679000D01*
X01653608D02*
X01658687Y01072946D01*
X01663765Y01067868D01*
Y01062789D01*
X01661226Y01060250D01*
X01656147D01*
X01653608Y01062789D01*
Y01065328D01*
X01656147Y01067868D01*
X01663765D01*
X01691500Y00600485D02*
Y00585250D01*
X01683882D01*
X01681343Y00587789D01*
Y00597946D01*
X01683882Y00600485D01*
X01691500D01*
X01666108D02*
X01676265D01*
Y00592868D01*
X01671187Y00595407D01*
X01668647D01*
X01666108Y00592868D01*
Y00587789D01*
X01668647Y00585250D01*
X01673726D01*
X01676265Y00587789D01*
X01685250Y00669235D02*
Y00654000D01*
X01677632D01*
X01675093Y00656539D01*
Y00666696D01*
X01677632Y00669235D01*
X01685250D01*
X01662397Y00654000D02*
Y00669235D01*
X01670015Y00661618D01*
X01659858D01*
X01691500Y00737985D02*
Y00722750D01*
X01683882D01*
X01681343Y00725289D01*
Y00735446D01*
X01683882Y00737985D01*
X01691500D01*
X01676265Y00735446D02*
X01673726Y00737985D01*
X01668647D01*
X01666108Y00735446D01*
Y00732907D01*
X01668647Y00730368D01*
X01671187D01*
X01668647D01*
X01666108Y00727828D01*
Y00725289D01*
X01668647Y00722750D01*
X01673726D01*
X01676265Y00725289D01*
X01685250Y00844235D02*
Y00829000D01*
X01677632D01*
X01675093Y00831539D01*
Y00841696D01*
X01677632Y00844235D01*
X01685250D01*
X01659858Y00829000D02*
X01670015D01*
X01659858Y00839157D01*
Y00841696D01*
X01662397Y00844235D01*
X01667476D01*
X01670015Y00841696D01*
X01685250Y00962985D02*
Y00947750D01*
X01677632D01*
X01675093Y00950289D01*
Y00960446D01*
X01677632Y00962985D01*
X01685250D01*
X01670015Y00947750D02*
X01664937D01*
X01667476D01*
Y00962985D01*
X01670015Y00960446D01*
X01556343Y00666696D02*
X01558882Y00669235D01*
X01563961D01*
X01566500Y00666696D01*
Y00656539D01*
X01563961Y00654000D01*
X01558882D01*
X01556343Y00656539D01*
X01543647Y00654000D02*
Y00669235D01*
X01551265Y00661618D01*
X01541108D01*
X01536030Y00654000D02*
X01530952D01*
X01533491D01*
Y00669235D01*
X01536030Y00666696D01*
X01271781Y00952996D02*
X01274321Y00955535D01*
X01279399D01*
X01281938Y00952996D01*
Y00942839D01*
X01279399Y00940300D01*
X01274321D01*
X01271781Y00942839D01*
X01256546Y00940300D02*
X01266703D01*
X01256546Y00950457D01*
Y00952996D01*
X01259085Y00955535D01*
X01264164D01*
X01266703Y00952996D01*
X00803051Y01184206D02*
X00805591Y01186745D01*
X00810669D01*
X00813208Y01184206D01*
Y01174049D01*
X00810669Y01171510D01*
X00805591D01*
X00803051Y01174049D01*
X00797973Y01171510D02*
X00792895D01*
X00795434D01*
Y01186745D01*
X00797973Y01184206D01*
X01487593Y00594039D02*
Y00604196D01*
X01490132Y00606735D01*
X01495211D01*
X01497750Y00604196D01*
Y00594039D01*
X01495211Y00591500D01*
X01490132D01*
X01492672Y00596578D02*
X01487593Y00591500D01*
X01490132D02*
X01487593Y00594039D01*
X01482515Y00591500D02*
X01477437D01*
X01479976D01*
Y00606735D01*
X01482515Y00604196D01*
D18*
X00579000Y00372750D02*
Y01010250D01*
Y00372750D02*
X00772750D01*
Y00571188D02*
Y00830563D01*
X00579000Y01010250D02*
X00772750D01*
Y00372750D02*
Y00571188D01*
Y00830563D02*
Y01010250D01*
D35*
X01535250Y00603250D02*
G03*
X01535250Y00603250I-00001250J00000000D01*
G01*
X01221500Y00938650D02*
G03*
X01221500Y00938650I-00001250J00000000D01*
G01*
X01577200Y00634750D02*
G03*
X01577200Y00634750I-00001250J00000000D01*
G01*
X01568750Y00976050D02*
G03*
X01568750Y00976050I-00001250J00000000D01*
G01*
D36*
X01199750Y00927750D02*
G03*
X01199750Y00927750I-00003000J00000000D01*
G01*
D37*
X01428750Y01181250D02*
X01440750D01*
X00753750Y01100000D02*
X00765750D01*
X00792250Y01102750D02*
X00804250D01*
X01716500Y00635500D02*
Y00647500D01*
X01266500Y00891750D02*
Y00903750D01*
Y00873000D02*
Y00885000D01*
X01716500Y01085500D02*
Y01097500D01*
Y00610500D02*
Y00622500D01*
Y00748000D02*
Y00760000D01*
Y00835500D02*
Y00847500D01*
Y00973000D02*
Y00985000D01*
X01666500Y01085500D02*
Y01097500D01*
X01679000Y00610500D02*
Y00622500D01*
Y00635500D02*
Y00647500D01*
Y00748000D02*
Y00760000D01*
X01672750Y00854250D02*
Y00866250D01*
X01679000Y00973000D02*
Y00985000D01*
X01716500Y00860500D02*
Y00872500D01*
X01266500Y00916750D02*
Y00928750D01*
X00797750Y01148000D02*
Y01160000D01*
X01515750Y00570250D02*
Y00578250D01*
Y00570250D02*
X01524750D01*
X01515750Y00592250D02*
Y00600250D01*
X01524750D01*
X01206750Y00807750D02*
Y00937750D01*
X01138750Y00807750D02*
Y00937750D01*
X01206750D01*
X01138750Y00807750D02*
X01206750D01*
X01516750Y00629000D02*
X01528750D01*
X01491750Y00629000D02*
X01503750D01*
X01548000Y00629000D02*
X01560000D01*
X01629000Y00602250D02*
Y00618250D01*
X01579000Y00602250D02*
Y00618250D01*
Y00602250D02*
X01629000D01*
X01579000Y00618250D02*
X01629000D01*
X01554250Y00585250D02*
X01566250D01*
X01485250Y00566750D02*
Y00578750D01*
X01582500Y01079000D02*
X01600500D01*
X01582500Y00979000D02*
X01600500D01*
Y01079000D01*
X01582500Y00979000D02*
Y01079000D01*
X01522750Y01004250D02*
Y01016250D01*
X01522750Y01060500D02*
Y01072500D01*
X01522750Y01041750D02*
Y01053750D01*
Y01023000D02*
Y01035000D01*
Y00985500D02*
Y00997500D01*
Y00966750D02*
Y00978750D01*
M02*
